<?xml version="1.0" standalone="no"?>
<!DOCTYPE svg PUBLIC "-//W3C//DTD SVG 20010904//EN"
 "http://www.w3.org/TR/2001/REC-SVG-20010904/DTD/svg10.dtd">
<svg version="1.0" xmlns="http://www.w3.org/2000/svg"
 width="1464.000000pt" height="3223.000000pt" viewBox="0 0 1464.000000 3223.000000"
 preserveAspectRatio="xMidYMid meet">

<g transform="translate(0.000000,3223.000000) scale(0.100000,-0.100000)"
fill="#000000" stroke="none">
<path d="M9177 31969 c-108 -9 -120 -13 -112 -38 12 -39 -56 -64 -110 -39 -19
9 -44 9 -103 0 -55 -8 -114 -8 -207 -1 -235 19 -307 21 -374 10 -66 -11 -223
-65 -251 -86 -8 -6 -53 -28 -100 -50 -189 -85 -268 -124 -274 -134 -4 -6 -17
-11 -28 -11 -12 0 -29 -6 -37 -14 -29 -24 -121 -86 -129 -86 -21 0 -136 -96
-182 -152 -85 -104 -179 -327 -210 -495 -15 -88 -17 -380 -3 -488 13 -93 19
-122 47 -215 12 -41 15 -88 14 -181 -3 -142 0 -150 67 -180 36 -16 41 -17 57
-2 24 21 107 11 146 -17 18 -14 54 -25 95 -30 36 -4 69 -10 74 -13 10 -7 196
18 248 33 22 6 138 14 258 17 l217 6 0 30 c0 17 7 38 15 47 13 14 13 19 1 35
-26 36 -221 50 -301 21 -22 -8 -80 -18 -130 -22 -137 -12 -137 -12 -189 -23
-56 -13 -66 -9 -66 25 0 13 -6 24 -13 24 -18 0 -37 -21 -37 -41 0 -9 -6 -22
-14 -28 -8 -7 -18 -26 -21 -42 -8 -34 -16 -36 -39 -10 -10 11 -31 23 -47 26
-27 6 -29 10 -27 48 3 40 1 42 -42 64 -25 12 -62 25 -83 29 -66 12 -67 14 -67
225 l0 190 139 272 138 272 54 32 c30 18 70 37 89 43 32 10 149 59 192 81 10
5 27 9 37 9 11 0 23 5 26 10 3 6 15 10 25 10 10 0 36 10 57 23 33 19 52 22
148 22 95 0 116 -3 150 -22 63 -35 155 -63 270 -83 28 -5 73 -14 100 -20 28
-6 109 -17 180 -25 191 -21 234 -29 316 -65 104 -44 110 -46 148 -61 39 -14
101 -65 101 -82 0 -6 26 -39 58 -73 81 -90 122 -140 122 -151 0 -6 7 -17 16
-24 9 -8 27 -30 41 -49 13 -19 35 -50 48 -69 14 -19 25 -45 25 -58 0 -24 -23
-107 -40 -148 -5 -11 -16 -40 -24 -65 l-14 -45 -49 2 c-26 1 -72 2 -102 2 -29
0 -58 4 -65 9 -24 20 -90 22 -193 8 -59 -8 -149 -20 -200 -27 -162 -21 -257
-85 -207 -140 15 -17 15 -19 1 -25 -9 -3 -29 1 -44 10 -48 26 -125 56 -144 56
-25 0 -24 -27 1 -35 11 -4 22 -18 25 -33 3 -15 10 -41 15 -58 6 -17 10 -42 10
-55 0 -14 6 -45 14 -70 7 -24 19 -64 26 -89 19 -72 31 -114 39 -135 5 -11 14
-33 20 -48 6 -15 11 -39 11 -52 0 -13 4 -26 9 -29 4 -3 11 -27 14 -53 10 -83
17 -108 39 -126 16 -14 18 -21 9 -30 -17 -17 -60 31 -81 90 -18 54 -34 61 -82
40 -18 -9 -44 -18 -58 -20 -14 -3 -43 -11 -65 -17 -75 -21 -130 -33 -170 -35
-52 -4 -95 -21 -95 -38 0 -8 -9 -26 -20 -40 -11 -14 -20 -30 -20 -36 0 -17 40
-34 53 -22 20 16 155 25 171 12 8 -6 53 -16 100 -21 48 -6 94 -14 104 -19 95
-48 151 -53 203 -18 27 18 35 30 37 61 2 21 -1 43 -7 49 -6 6 -11 23 -11 38 0
15 -4 30 -9 33 -13 8 -21 71 -31 241 -5 83 -11 165 -12 184 -3 30 1 35 25 42
15 4 41 19 58 33 17 14 40 26 51 26 24 0 76 -43 179 -147 l72 -73 147 0 146 0
49 74 c27 41 52 73 56 71 12 -8 21 -83 26 -215 4 -119 3 -126 -18 -142 -13
-11 -38 -18 -65 -18 -32 0 -44 -4 -44 -15 0 -8 5 -15 10 -15 21 0 100 -83 100
-104 0 -12 -9 -46 -20 -76 -11 -30 -20 -63 -20 -72 0 -10 -4 -26 -9 -36 -21
-42 -69 -216 -78 -285 -3 -20 -9 -40 -14 -43 -5 -3 -9 -17 -9 -32 0 -15 -18
-58 -40 -97 -21 -38 -53 -99 -71 -133 -18 -35 -46 -74 -62 -85 -16 -12 -52
-43 -81 -69 -29 -27 -57 -48 -63 -48 -5 0 -22 -14 -39 -31 -33 -35 -308 -178
-369 -191 -60 -13 -104 -24 -170 -43 -38 -10 -76 -14 -105 -10 -25 3 -79 10
-120 16 -76 10 -222 24 -360 34 -72 6 -132 25 -145 45 -3 6 -17 10 -31 10 -21
0 -25 -4 -22 -22 2 -18 12 -24 41 -29 21 -3 50 -15 65 -26 15 -11 45 -30 67
-42 22 -12 60 -35 85 -51 72 -47 481 -248 520 -255 39 -7 142 -40 180 -58 32
-14 90 -67 90 -82 0 -6 15 -26 34 -44 30 -29 36 -32 57 -21 13 7 34 22 47 34
24 22 112 73 219 126 56 28 66 31 97 20 19 -6 37 -18 40 -26 10 -26 7 -122 -4
-129 -6 -3 -10 -48 -10 -100 0 -52 4 -97 10 -100 6 -3 10 -24 10 -45 0 -21 5
-42 10 -45 21 -13 10 -92 -21 -156 -18 -35 -35 -66 -38 -69 -32 -23 -132 -259
-178 -420 -9 -30 -22 -62 -28 -70 -22 -27 -39 -63 -25 -55 16 10 4 -29 -21
-71 -20 -32 -100 -104 -116 -104 -5 0 -20 -12 -34 -26 -30 -32 -151 -115 -199
-137 -46 -20 -198 -74 -230 -81 -42 -10 -267 18 -355 44 -22 6 -56 15 -75 20
-109 26 -166 46 -264 96 -138 69 -180 100 -297 221 -97 101 -132 146 -187 245
l-32 58 0 287 c0 297 -7 423 -21 423 -5 0 -9 -12 -9 -26 0 -14 -9 -60 -21
-102 -11 -43 -25 -93 -30 -112 -5 -19 -14 -66 -19 -105 -11 -71 -25 -126 -41
-157 -5 -10 -9 -27 -9 -37 0 -11 -4 -23 -10 -26 -5 -3 -10 -17 -10 -30 0 -13
-4 -26 -9 -29 -5 -3 -12 -18 -15 -33 -27 -114 -39 -190 -41 -268 -1 -49 -8
-130 -14 -180 -6 -49 -13 -112 -15 -140 -4 -48 -17 -156 -36 -300 -5 -38 -14
-117 -19 -175 -5 -58 -17 -148 -26 -200 -10 -52 -21 -120 -26 -150 -8 -54 -17
-103 -38 -205 -6 -27 -15 -75 -21 -105 -10 -60 -36 -181 -51 -245 -6 -22 -14
-58 -19 -80 -5 -22 -13 -58 -19 -80 -14 -55 -27 -110 -41 -175 -22 -106 -129
-446 -161 -514 -11 -22 -19 -46 -19 -53 0 -7 -4 -21 -9 -31 -13 -24 -55 -137
-71 -192 -39 -133 -94 -289 -140 -395 -9 -22 -27 -65 -40 -95 -12 -30 -31 -75
-42 -99 -11 -25 -26 -65 -34 -90 -9 -25 -24 -65 -35 -88 -10 -24 -19 -49 -19
-56 0 -7 -4 -17 -8 -23 -5 -5 -17 -29 -26 -54 -29 -74 -71 -163 -187 -395
-122 -244 -178 -347 -226 -419 -18 -26 -33 -51 -33 -55 0 -5 -6 -14 -14 -20
-8 -7 -36 -44 -63 -84 -48 -72 -84 -111 -142 -155 -17 -13 -31 -27 -31 -32 0
-5 -35 -63 -77 -130 -119 -185 -162 -253 -172 -275 -5 -12 -16 -27 -25 -34 -9
-7 -16 -17 -16 -22 0 -5 -28 -50 -63 -101 -35 -51 -77 -115 -93 -141 -16 -27
-37 -61 -46 -75 -10 -15 -27 -45 -39 -67 -12 -22 -34 -56 -49 -75 -15 -19 -36
-51 -46 -70 -31 -58 -137 -214 -151 -223 -7 -4 -20 -20 -27 -35 -8 -15 -38
-52 -66 -82 -29 -30 -58 -64 -66 -75 -13 -18 -14 -18 -14 12 0 18 4 42 9 55
21 55 52 165 54 193 3 46 -32 46 -69 0 -16 -20 -45 -55 -64 -78 -20 -23 -43
-53 -52 -67 -8 -14 -40 -53 -69 -87 -30 -34 -67 -79 -82 -100 -15 -21 -58 -78
-95 -128 -37 -49 -93 -129 -124 -177 -31 -47 -62 -89 -68 -93 -14 -8 -63 -86
-58 -91 6 -5 97 44 148 81 68 49 131 78 142 67 12 -12 -1 -58 -36 -137 -12
-27 -28 -88 -35 -135 -7 -47 -16 -96 -21 -110 -4 -14 -22 -72 -40 -130 -66
-218 -81 -257 -128 -330 -27 -41 -57 -91 -68 -110 -10 -19 -24 -42 -30 -50 -6
-8 -14 -26 -18 -40 -4 -14 -12 -41 -18 -60 -5 -19 -14 -60 -18 -90 -5 -30 -17
-85 -28 -122 -20 -67 -20 -68 -1 -107 10 -22 19 -45 19 -50 0 -17 33 -81 42
-81 16 0 8 -39 -9 -43 -10 -3 -40 -10 -68 -17 -130 -30 -286 -84 -327 -112
-14 -10 -31 -18 -38 -18 -6 0 -37 -13 -68 -29 -31 -16 -102 -48 -157 -71 -91
-38 -305 -146 -380 -191 -16 -10 -52 -31 -79 -46 -27 -16 -56 -33 -65 -38
-132 -83 -156 -100 -208 -143 -61 -51 -72 -75 -48 -103 34 -36 135 -33 135 5
0 21 43 41 115 56 101 19 126 30 120 49 -3 11 15 41 51 87 90 110 124 143 199
191 39 25 90 59 115 75 25 16 83 47 130 70 47 22 93 44 102 49 10 5 27 9 37 9
11 0 30 4 43 9 13 5 43 14 68 21 25 7 91 28 148 46 89 29 116 34 203 34 97 0
146 -11 221 -51 10 -5 24 -9 32 -9 26 0 108 -40 145 -71 20 -16 62 -53 94 -81
32 -29 71 -60 85 -69 15 -9 93 -84 174 -165 128 -130 153 -161 197 -244 28
-52 57 -102 64 -110 12 -15 118 -70 135 -70 5 0 21 -9 36 -21 23 -18 27 -19
32 -5 3 9 2 22 -4 29 -5 6 -38 66 -72 132 -80 154 -147 235 -287 346 -220 176
-227 184 -140 174 69 -8 154 -34 168 -51 6 -8 17 -14 23 -14 13 0 71 -48 231
-190 218 -194 281 -240 330 -240 14 0 42 -7 62 -15 19 -8 74 -18 122 -21 117
-9 113 -6 168 -114 82 -158 261 -415 338 -483 31 -28 155 -111 205 -138 25
-13 59 -33 75 -45 17 -12 68 -42 115 -67 47 -25 108 -58 135 -74 28 -16 66
-36 85 -45 19 -9 87 -41 151 -71 64 -30 145 -63 180 -74 272 -86 351 -98 620
-96 171 2 220 6 380 34 198 34 173 35 372 -8 77 -17 87 -17 82 -4 -8 29 19 46
100 64 137 30 210 50 340 92 55 18 146 47 203 65 57 17 148 54 203 82 106 54
154 99 273 258 27 36 68 85 91 110 23 25 52 62 66 83 13 20 40 48 61 62 33 22
38 23 49 8 8 -9 30 -26 51 -39 35 -22 37 -26 41 -91 3 -37 9 -85 12 -106 5
-24 3 -42 -5 -52 -17 -21 -40 -19 -40 4 0 10 -7 34 -15 52 l-16 34 6 -45 c3
-24 11 -50 17 -58 11 -13 14 -107 6 -227 -16 -241 -28 -295 -63 -295 -8 0 -15
-4 -15 -8 0 -10 -87 -67 -115 -76 -11 -3 -35 -19 -53 -35 -29 -27 -32 -35 -32
-87 l0 -57 30 32 c17 17 36 31 44 31 7 0 19 7 26 15 28 34 80 2 80 -48 0 -15
4 -35 8 -45 5 -9 25 -51 46 -92 20 -41 39 -93 43 -115 3 -22 10 -48 15 -59 6
-10 20 -46 33 -80 13 -33 40 -101 60 -151 51 -126 104 -277 127 -365 11 -41
23 -88 28 -105 4 -16 15 -57 24 -90 16 -58 39 -129 56 -170 22 -54 71 -186 84
-230 64 -206 96 -318 123 -435 15 -69 16 -70 38 -225 31 -210 44 -287 65 -390
6 -27 14 -86 19 -130 5 -44 18 -152 29 -240 12 -88 24 -182 27 -210 9 -75 24
-200 35 -285 21 -157 31 -402 38 -905 4 -286 11 -526 15 -533 5 -7 16 -52 25
-100 12 -66 16 -154 16 -367 l0 -280 -36 -85 c-20 -47 -47 -110 -60 -140 -23
-55 -66 -130 -79 -140 -3 -3 -15 -19 -25 -35 -78 -126 -158 -215 -306 -343
-40 -34 -94 -80 -119 -102 -25 -22 -49 -40 -53 -40 -8 0 -135 -87 -162 -111
-11 -11 -23 -19 -27 -19 -19 0 -104 -67 -262 -206 -101 -90 -293 -234 -312
-234 -3 0 -14 -6 -22 -14 -9 -8 -82 -48 -162 -90 -158 -83 -156 -81 -314 -271
-44 -53 -118 -131 -165 -173 -47 -42 -119 -109 -160 -147 -41 -39 -106 -97
-144 -130 -38 -33 -95 -82 -126 -110 -31 -27 -114 -99 -186 -160 -71 -60 -138
-118 -149 -127 -79 -68 -113 -96 -131 -108 -12 -8 -62 -49 -112 -90 -50 -41
-121 -97 -159 -124 -111 -81 -183 -135 -282 -215 -51 -42 -114 -91 -140 -110
-25 -19 -118 -107 -207 -196 -160 -162 -161 -162 -298 -235 -116 -61 -139 -77
-155 -108 -11 -21 -33 -50 -50 -67 -34 -31 -65 -85 -55 -94 3 -3 8 -1 12 5 11
16 60 44 77 44 64 0 -85 -194 -220 -286 -27 -18 -77 -57 -110 -84 -102 -87
-178 -142 -225 -164 -69 -32 -118 -74 -158 -135 -20 -31 -42 -62 -49 -69 -7
-7 -13 -17 -13 -22 0 -5 -6 -15 -13 -22 -7 -7 -27 -37 -46 -65 -32 -51 -44
-63 -136 -133 -105 -80 -178 -145 -201 -179 -13 -20 -35 -52 -48 -72 -13 -19
-36 -43 -50 -52 -48 -32 -33 -44 62 -49 48 -3 97 0 110 5 12 6 25 7 29 3 9 -8
-19 -60 -60 -113 -198 -254 -181 -238 -283 -288 -103 -52 -118 -53 -196 -15
-23 11 -47 20 -54 20 -15 0 -164 89 -164 98 0 4 -16 24 -36 45 -42 44 -115
198 -135 282 -8 36 -14 115 -14 197 0 76 -3 138 -6 138 -12 0 -29 -124 -29
-206 0 -56 -5 -86 -16 -102 -10 -15 -13 -33 -9 -55 7 -32 39 -133 54 -172 5
-11 13 -30 17 -42 13 -32 190 -221 225 -238 17 -9 29 -24 29 -35 0 -36 -68
-26 -157 23 -43 23 -95 51 -115 60 -21 10 -44 30 -52 45 -8 15 -28 40 -45 56
-17 17 -31 34 -31 39 0 5 -18 31 -41 56 -60 69 -62 70 -96 136 -82 154 -113
228 -170 410 -17 55 -28 135 -43 300 -5 61 -11 121 -14 135 -2 14 2 36 9 50
35 62 -2 83 -38 22 -17 -29 -19 -51 -18 -173 1 -118 -1 -139 -13 -139 -9 0
-23 12 -33 28 -10 15 -26 33 -35 40 -27 20 -45 61 -51 122 -8 67 4 112 68 245
45 95 75 169 75 185 0 16 -88 34 -173 34 -133 0 -284 -26 -424 -73 -72 -24
-140 -41 -167 -41 -39 0 -46 -3 -51 -22 -15 -58 29 -705 59 -898 27 -167 28
-172 91 -440 7 -30 40 -134 75 -230 34 -96 64 -185 67 -198 3 -12 9 -25 14
-28 5 -3 9 -12 9 -20 0 -8 9 -33 20 -56 16 -34 49 -151 92 -333 6 -22 14 -71
19 -110 9 -75 24 -187 38 -300 23 -172 32 -250 45 -402 8 -89 19 -177 25 -195
5 -18 22 -80 36 -138 14 -58 34 -127 44 -155 10 -27 32 -90 49 -140 51 -155
84 -231 193 -450 38 -77 69 -149 69 -161 0 -42 146 -138 266 -173 125 -37 133
-56 132 -331 -1 -328 11 -555 33 -623 21 -67 59 -134 94 -167 14 -13 25 -32
25 -42 0 -10 6 -18 14 -18 8 0 21 -9 28 -19 22 -31 78 -58 168 -81 77 -20 109
-22 340 -20 140 0 282 6 315 11 33 6 80 11 105 10 574 -12 689 -12 820 -1 161
13 209 26 290 75 68 41 215 191 261 265 55 89 72 130 92 230 27 133 37 243 37
396 0 142 6 198 31 319 23 106 61 195 107 250 24 29 172 190 313 340 180 190
231 274 237 389 5 74 -10 157 -38 221 -50 112 -66 176 -105 405 -72 418 -85
471 -139 563 -14 25 -60 76 -101 113 -73 65 -100 102 -149 201 -80 160 -94
318 -52 583 15 91 29 176 32 190 2 14 9 57 14 95 5 39 14 95 20 125 27 140 33
247 39 690 7 497 6 485 55 590 27 58 147 179 405 405 112 99 209 185 215 190
111 102 396 334 516 420 30 22 57 42 60 46 5 6 114 89 285 218 55 42 102 78
105 81 3 3 61 48 130 100 69 51 127 96 130 99 3 3 28 24 55 46 89 71 126 105
435 412 168 166 328 319 355 341 47 36 133 82 154 82 5 0 32 12 59 26 57 29
115 77 247 202 93 88 156 132 342 240 59 34 139 86 177 114 83 62 242 218 315
308 29 36 59 73 67 83 8 10 34 49 57 85 102 161 147 291 183 530 19 128 21
471 3 503 -11 19 -15 152 -19 680 -3 431 -9 661 -15 670 -32 43 -43 128 -65
494 -11 199 -37 456 -59 600 -9 61 -56 311 -76 400 -3 17 -10 50 -14 75 -5 25
-14 70 -21 100 -12 54 -16 74 -40 195 -6 33 -15 74 -20 90 -5 17 -19 64 -31
105 -34 119 -112 347 -123 357 -3 3 -6 16 -6 28 0 12 -3 25 -7 28 -6 7 -28 65
-64 172 -11 33 -24 69 -29 80 -4 11 -18 47 -30 80 -12 33 -26 69 -30 80 -5 11
-18 47 -29 81 -17 54 -36 106 -61 169 -20 54 -32 100 -37 149 -8 80 13 115
103 171 79 50 161 134 214 221 l32 54 2 332 c2 224 7 351 15 388 51 222 99
317 198 391 33 24 133 96 223 159 95 67 198 149 245 195 74 74 151 185 170
245 45 145 129 252 462 585 256 257 310 331 393 535 12 30 31 75 43 100 11 25
38 88 59 140 22 52 48 113 58 135 10 22 44 101 75 175 31 74 65 153 75 175 10
22 30 69 45 105 15 36 37 88 50 115 33 73 89 229 114 315 12 41 26 89 31 105
42 138 65 512 40 660 -19 118 -33 180 -42 189 -4 6 -8 17 -8 26 0 25 -44 108
-94 179 -52 74 -81 155 -72 203 18 92 24 240 16 404 -5 98 -14 280 -20 404
-10 223 -5 355 20 475 30 148 32 222 8 310 -35 128 -76 226 -188 450 -160 318
-170 342 -170 421 0 68 16 110 136 363 75 156 69 142 115 297 5 17 9 55 9 84
0 53 -2 65 -36 170 -50 160 -169 358 -276 457 -138 129 -166 161 -243 279 -58
90 -107 149 -199 240 -184 184 -231 216 -491 340 -129 61 -453 268 -599 383
-126 98 -396 359 -518 499 -36 42 -80 93 -98 112 -102 114 -196 254 -225 335
-36 99 -48 417 -20 545 8 36 17 79 20 95 4 17 10 39 15 50 42 105 80 213 80
227 0 9 5 20 10 23 6 3 10 27 10 52 0 85 40 143 201 288 102 92 182 229 234
400 32 104 35 144 16 203 -12 37 -12 51 4 118 21 90 14 126 -38 195 -88 115
-91 147 -66 644 27 541 18 658 -62 866 -76 198 -172 312 -386 457 -67 45 -124
82 -128 82 -3 0 -29 15 -58 33 -146 93 -301 147 -419 147 -78 0 -150 13 -175
33 -7 5 -59 11 -115 13 -57 3 -121 6 -143 7 -22 2 -80 0 -128 -4z m241 -1989
c37 -23 39 -31 15 -53 -12 -10 -46 -17 -103 -21 -47 -3 -115 -8 -152 -12 -59
-5 -70 -3 -98 18 -22 16 -45 23 -76 23 -24 0 -44 3 -44 7 0 17 76 38 139 39
36 1 91 4 121 9 105 14 163 11 198 -10z m128 -2551 c6 -5 35 -49 65 -97 75
-124 182 -254 301 -366 57 -54 138 -138 181 -188 75 -88 148 -144 362 -276 61
-38 81 -51 135 -91 134 -98 294 -200 395 -252 61 -31 142 -78 180 -104 138
-92 418 -362 471 -452 83 -140 113 -185 157 -230 28 -29 56 -53 63 -53 16 0
128 -117 162 -170 109 -167 140 -233 158 -330 18 -97 18 -228 0 -310 -15 -72
-119 -295 -190 -410 -25 -41 -46 -77 -46 -82 0 -4 -13 -26 -28 -50 -16 -24
-43 -65 -60 -92 -17 -26 -61 -82 -97 -125 -36 -42 -93 -110 -128 -151 -46 -55
-71 -76 -91 -78 -28 -3 -94 -43 -108 -65 -9 -14 -10 -63 -2 -94 6 -23 30 -31
36 -13 5 16 69 98 138 176 128 145 228 266 253 307 26 41 62 37 86 -11 11 -21
38 -66 60 -100 23 -33 41 -64 41 -67 0 -3 16 -28 35 -56 19 -28 35 -57 35 -64
0 -36 58 -181 103 -260 73 -126 84 -152 95 -224 8 -57 7 -68 -14 -110 -13 -25
-24 -55 -24 -67 0 -11 -7 -29 -15 -40 -8 -10 -15 -40 -15 -65 0 -39 4 -49 25
-63 30 -20 31 -42 5 -127 -11 -35 -25 -80 -31 -101 -15 -47 -3 -107 26 -134
19 -18 24 -36 31 -120 5 -54 9 -184 9 -289 0 -188 -2 -203 -40 -326 -21 -67
-19 -161 4 -202 11 -19 24 -43 29 -53 6 -11 23 -53 37 -94 27 -77 37 -101 98
-230 44 -94 57 -160 58 -280 0 -52 1 -124 2 -160 1 -38 -6 -92 -16 -130 -10
-36 -22 -87 -26 -115 -11 -70 -33 -113 -68 -135 -24 -14 -32 -28 -37 -62 -9
-57 -36 -169 -45 -188 -5 -8 -14 -40 -21 -70 -12 -55 -25 -91 -75 -210 -15
-36 -34 -83 -42 -105 -8 -22 -35 -82 -59 -133 -25 -51 -56 -125 -70 -165 -15
-40 -39 -99 -54 -132 -16 -33 -38 -94 -50 -135 -11 -41 -25 -84 -30 -95 -5
-11 -21 -56 -35 -100 -27 -81 -59 -136 -149 -255 -53 -69 -146 -170 -157 -170
-4 0 -9 28 -12 63 -3 34 -12 94 -21 132 -10 39 -20 85 -23 103 -3 18 -9 35
-14 38 -5 3 -9 15 -9 28 0 36 -55 109 -117 155 -99 74 -144 95 -273 129 -162
43 -202 51 -277 51 -34 1 -84 5 -110 10 -26 5 -77 12 -113 15 l-64 6 -59 -62
c-32 -35 -65 -75 -73 -90 -10 -19 -22 -28 -40 -28 -28 0 -42 26 -53 100 -4 33
-12 48 -29 56 -13 6 -29 17 -35 23 -6 6 -15 11 -19 11 -11 0 -10 -367 1 -374
4 -3 33 12 64 33 42 30 69 41 114 46 95 11 209 7 274 -9 79 -21 81 -21 77 11
-4 40 25 41 68 3 20 -17 46 -35 59 -40 17 -7 28 -26 45 -82 12 -40 33 -90 47
-110 31 -46 25 -78 -15 -78 -39 0 -50 10 -81 76 -33 70 -78 121 -92 107 -11
-11 -5 -29 38 -118 26 -56 38 -75 108 -176 61 -87 58 -82 79 -145 19 -62 33
-258 19 -276 -5 -7 -18 -35 -28 -63 -10 -27 -22 -54 -26 -59 -5 -6 -9 -18 -9
-27 0 -27 -63 -132 -94 -158 -9 -7 -16 -18 -16 -24 0 -9 -41 -60 -98 -122 -34
-37 -291 -270 -337 -305 -25 -19 -60 -47 -78 -61 -17 -14 -42 -31 -54 -38 -21
-11 -83 -16 -83 -6 0 19 41 69 228 277 34 38 62 76 62 83 0 8 16 30 35 51 19
20 35 43 35 50 0 22 -30 16 -41 -9 -5 -12 -28 -33 -51 -47 -88 -54 -170 -117
-272 -210 -34 -31 -77 -68 -96 -82 -19 -15 -57 -47 -85 -72 -27 -26 -56 -46
-63 -46 -7 0 -34 14 -58 31 -37 25 -44 34 -38 52 13 44 90 160 219 330 50 65
96 131 104 145 8 15 18 34 23 42 4 8 12 25 17 37 6 11 14 24 20 27 5 4 23 26
39 49 16 23 41 60 55 81 29 42 36 86 13 86 -8 0 -18 -5 -21 -10 -4 -6 -30 -22
-58 -36 -57 -29 -187 -129 -187 -144 0 -15 15 -12 43 10 32 25 53 25 60 0 6
-24 -16 -55 -126 -170 -48 -50 -95 -103 -104 -118 -19 -31 -162 -192 -208
-235 -41 -38 -101 -77 -120 -77 -26 0 -92 38 -109 62 -28 40 -20 107 19 167
19 29 35 54 35 57 0 2 33 52 73 111 40 59 83 126 95 148 24 46 55 136 48 142
-8 8 -68 -41 -90 -73 -90 -133 -190 -239 -256 -274 -14 -7 -45 -30 -70 -50
-25 -20 -56 -43 -71 -51 -111 -61 -129 -78 -132 -122 -3 -63 -22 -47 -25 23
-6 106 29 264 85 389 18 40 33 77 33 82 0 5 -15 9 -34 9 -28 0 -38 -6 -56 -35
-12 -19 -26 -35 -31 -35 -5 0 -9 -6 -9 -13 0 -27 -89 -98 -240 -193 -41 -26
-84 -56 -96 -66 -36 -32 -74 -28 -100 10 -29 42 -20 79 27 109 94 61 123 89
151 148 89 185 103 205 286 392 97 99 193 188 212 198 19 9 68 38 108 64 68
43 73 48 67 75 -3 16 2 58 11 93 9 36 13 76 9 91 -3 15 -34 86 -68 157 l-62
130 0 195 c1 232 1 233 76 613 76 383 101 579 99 761 -1 78 -1 152 -1 165 1
14 -6 33 -15 42 -12 14 -15 29 -10 59 4 26 1 52 -9 76 -9 23 -15 68 -15 123 0
48 -4 112 -10 142 -5 30 -15 113 -21 184 -6 72 -15 166 -20 210 -33 282 -44
1571 -16 1910 20 247 34 447 47 675 6 96 15 204 20 240 34 228 69 861 70 1280
1 124 5 297 9 384 8 151 7 163 -14 226 -12 37 -27 75 -33 86 -22 41 -50 153
-77 314 -7 47 -22 119 -31 160 -19 85 -25 391 -11 543 l9 89 26 -7 c15 -4 32
-11 38 -16z m-355 -10276 c13 -16 12 -17 -3 -4 -17 13 -22 21 -14 21 2 0 10
-8 17 -17z m987 -285 c16 -16 15 -103 -4 -218 -42 -265 -52 -381 -35 -414 18
-32 9 -187 -14 -261 -47 -149 -147 -234 -202 -172 -49 54 -65 95 -60 150 5 51
27 180 49 287 6 32 11 169 12 333 1 264 2 279 20 293 25 18 216 20 234 2z
m-3988 -10818 c0 -5 -4 -10 -10 -10 -5 0 -10 5 -10 10 0 6 5 10 10 10 6 0 10
-4 10 -10z m-24 -81 c1 -8 2 -19 3 -25 0 -7 10 -14 20 -17 27 -7 27 -86 -1
-133 -11 -18 -18 -39 -16 -45 2 -6 10 2 18 17 8 16 22 37 30 47 8 10 16 22 16
27 1 6 2 15 3 21 3 24 25 0 36 -38 17 -57 4 -352 -20 -453 -30 -129 -56 -234
-66 -270 -14 -47 -27 -137 -34 -240 -9 -136 -21 -201 -48 -275 -9 -22 -18 -72
-22 -111 -7 -71 1 -110 53 -254 11 -30 18 -93 22 -185 3 -77 8 -145 13 -152 9
-13 42 -6 58 13 16 19 55 18 63 -2 3 -9 6 -37 6 -63 l0 -47 -142 -1 c-79 0
-151 4 -162 9 -10 6 -96 10 -191 10 -95 0 -179 4 -186 9 -10 6 -13 69 -16 266
-2 164 -7 267 -14 283 -22 48 -26 54 -39 58 -10 4 -12 -7 -6 -49 3 -30 9 -119
13 -199 5 -136 4 -147 -16 -183 -11 -21 -21 -45 -21 -55 0 -14 -2 -14 -9 -3
-5 8 -10 72 -10 144 -1 72 -5 135 -8 141 -4 6 -6 25 -5 43 2 19 -4 43 -11 54
-14 20 -15 20 -20 -3 -4 -12 1 -49 9 -82 30 -117 3 -379 -58 -553 -20 -59 -24
-63 -53 -63 -19 0 -39 8 -50 20 -24 26 -39 25 -63 -5 -35 -44 -52 -33 -52 34
0 62 7 71 55 71 24 0 23 -2 51 120 34 153 36 178 30 320 -9 240 -19 306 -50
338 -18 20 -26 39 -26 65 0 42 0 43 43 21 68 -35 102 -70 115 -120 22 -78 41
-123 41 -97 1 12 4 28 7 36 3 8 -2 21 -10 30 -9 9 -16 28 -16 44 -1 15 -8 46
-16 68 -9 22 -22 60 -29 85 -21 71 -55 162 -76 201 -24 45 -24 79 -1 110 9 13
23 35 31 49 42 72 83 140 107 179 40 64 181 258 207 286 12 13 56 67 97 121
41 53 93 119 115 145 22 26 80 95 128 153 53 62 98 106 110 108 30 5 62 -7 63
-23z m-919 -1525 c30 -41 7 -82 -65 -118 -52 -26 -68 -5 -32 41 11 14 20 30
20 36 0 16 -49 -34 -56 -57 -3 -12 -12 -34 -19 -51 -47 -108 -59 -139 -84
-220 -16 -49 -36 -119 -46 -155 -21 -78 -44 -144 -78 -225 -14 -33 -30 -80
-37 -105 -7 -25 -16 -53 -21 -62 -5 -10 -9 -26 -9 -37 0 -37 -30 -92 -48 -89
-19 4 -19 8 3 103 22 95 44 232 45 279 0 21 9 66 20 100 11 33 31 99 45 146
35 114 70 186 116 239 22 24 39 53 39 65 0 12 9 27 20 34 11 7 20 18 20 26 0
8 16 28 37 46 32 28 41 32 77 27 22 -3 46 -14 53 -23z m-397 -94 c22 -11 46
-20 55 -20 8 0 15 -4 15 -9 0 -16 -30 -21 -90 -14 -53 5 -60 8 -60 28 0 41 21
45 80 15z m-1186 -136 c41 -36 606 -316 682 -339 32 -10 64 -22 69 -26 6 -4
42 -14 82 -22 90 -19 96 -22 82 -48 -28 -53 -244 13 -559 171 -107 53 -211
107 -230 119 -19 11 -57 33 -84 48 -72 41 -121 86 -113 106 9 24 35 21 71 -9z
m2851 -479 c41 -119 53 -165 40 -165 -2 0 -16 5 -30 12 -40 18 -68 81 -72 163
-2 39 -8 82 -14 97 -6 15 -8 32 -4 38 14 22 33 -13 80 -145z m-101 -31 c18 -7
22 -39 6 -49 -5 -3 -10 -23 -10 -45 0 -28 -7 -46 -29 -69 -27 -29 -33 -31 -73
-25 -55 8 -59 13 -62 65 -2 24 -6 59 -11 77 l-7 32 53 0 c30 0 61 5 69 10 17
11 41 13 64 4z m-623 -164 c23 -43 25 -142 4 -193 -30 -73 -11 -91 61 -58 26
12 60 21 78 19 26 -3 32 -8 34 -32 5 -41 -10 -50 -86 -56 l-67 -5 1 -50 c1
-27 6 -68 13 -90 6 -22 16 -60 22 -85 5 -25 14 -61 19 -80 30 -126 61 -302 70
-403 10 -120 6 -156 -13 -121 -10 18 -16 43 -36 164 -5 30 -21 87 -36 125 -15
39 -36 99 -46 135 -11 36 -24 74 -29 85 -5 11 -11 32 -14 46 -4 17 -14 29 -30
33 -33 8 -40 33 -16 63 31 40 23 123 -11 123 -4 0 -28 -39 -54 -86 -43 -79
-46 -87 -31 -103 9 -10 16 -22 16 -27 0 -6 15 -28 33 -50 41 -47 124 -197 155
-277 30 -80 32 -297 3 -355 -10 -20 -21 -50 -25 -66 -4 -15 -15 -40 -25 -55
-10 -14 -25 -38 -34 -52 -16 -28 -49 -39 -122 -43 -22 -1 -51 -7 -65 -12 -14
-6 -96 -11 -183 -13 -165 -2 -230 -11 -372 -51 -58 -16 -158 -39 -173 -40 -9
0 -12 12 -10 38 3 36 5 38 58 54 30 9 68 19 83 22 33 8 80 51 75 68 -3 7 -20
16 -39 21 -42 11 -59 24 -59 47 0 39 26 45 117 26 61 -13 88 -15 96 -7 6 6 27
11 46 11 48 0 121 37 121 61 0 30 -45 35 -90 10 -21 -11 -52 -21 -69 -21 -26
0 -31 4 -31 24 0 32 -34 72 -81 96 -39 20 -43 27 -39 65 4 41 32 38 163 -16
75 -31 78 -31 97 -14 25 23 28 102 4 112 -8 3 -20 1 -27 -6 -6 -6 -22 -11 -35
-11 -21 0 -23 3 -18 23 14 43 11 50 -28 63 -72 26 -97 71 -60 108 20 20 14 21
106 -11 63 -23 80 -25 87 -15 4 8 11 53 14 102 4 48 14 114 23 146 10 33 19
85 21 116 3 39 11 62 24 74 21 19 25 59 8 70 -6 4 -8 20 -4 41 l6 34 -28 -23
c-93 -77 -171 -191 -165 -239 2 -9 -4 -21 -11 -28 -8 -6 -38 -66 -66 -134 -82
-189 -96 -219 -147 -298 -26 -41 -83 -144 -127 -229 -90 -175 -108 -200 -135
-184 -9 6 -19 23 -22 37 -4 21 -8 24 -20 17 -8 -5 -26 -10 -39 -10 -21 0 -22
2 -10 17 8 9 29 23 48 30 36 15 52 32 112 118 32 45 109 194 109 210 0 5 63
157 125 300 7 17 30 71 51 120 21 50 55 117 76 150 21 33 47 79 57 102 14 29
37 53 78 81 32 22 65 48 73 58 14 16 11 17 -60 11 -81 -6 -150 2 -152 18 -2
19 67 43 144 50 106 10 141 24 188 78 33 38 48 47 73 47 18 0 41 -7 51 -15 17
-13 17 -15 3 -21 -9 -3 -26 -21 -37 -39 -18 -29 -20 -49 -20 -186 0 -166 5
-199 27 -199 15 0 46 64 58 120 4 19 12 41 17 48 7 7 8 28 3 55 -5 23 -9 76
-9 117 -1 72 0 75 34 107 48 46 95 43 121 -7z m274 -126 c44 -8 96 -18 115
-22 27 -5 36 -13 38 -31 5 -31 -17 -44 -44 -26 -15 10 -65 14 -173 17 -137 3
-154 5 -167 22 -19 26 -18 31 9 44 32 16 130 14 222 -4z m-1575 -24 c-8 -5
-27 -10 -42 -10 -15 0 -30 -4 -33 -10 -3 -5 -21 -10 -40 -10 -19 0 -37 -4 -40
-10 -3 -5 -21 -10 -39 -10 -48 0 -261 -68 -395 -126 -31 -14 -69 -24 -152 -41
-36 -7 -44 11 -17 40 21 21 126 59 397 143 25 8 70 14 100 14 31 1 79 7 106
14 60 16 178 20 155 6z m768 -449 c-2 -20 -9 -26 -28 -26 -22 0 -25 4 -23 35
1 19 2 36 2 37 1 2 12 -3 26 -9 20 -9 25 -18 23 -37z m867 -191 c43 -21 87
-48 99 -58 12 -10 42 -33 69 -51 54 -37 97 -80 97 -98 0 -23 -25 -14 -59 21
-29 30 -283 166 -310 166 -15 0 -33 29 -27 45 9 25 50 17 131 -25z m-153 -487
c6 -16 12 -57 13 -93 1 -36 7 -103 14 -150 24 -163 24 -167 6 -174 -24 -9 -35
1 -35 32 0 15 -6 47 -14 72 -14 49 -32 313 -21 330 11 18 25 11 37 -17z m100
-1190 l-1 -102 -60 -123 c-45 -94 -73 -137 -118 -184 -75 -78 -193 -184 -205
-184 -6 0 -24 -10 -40 -22 -36 -25 -81 -36 -198 -48 -47 -5 -100 -14 -118 -21
-28 -9 -36 -8 -53 7 -37 33 -25 51 41 59 112 13 242 98 401 262 120 124 199
240 265 387 l57 126 14 -27 c10 -19 15 -60 15 -130z"/>
<path d="M10011 26016 c-20 -37 -10 -297 14 -356 24 -59 21 -57 50 -30 14 14
40 29 58 35 29 9 32 14 35 58 3 45 -19 128 -40 152 -4 5 -8 19 -8 31 0 25 -69
134 -85 134 -7 0 -17 -11 -24 -24z"/>
<path d="M11457 22841 c-54 -27 -103 -54 -110 -59 -7 -5 -23 -13 -37 -17 -14
-4 -35 -18 -47 -31 -24 -26 -56 -150 -44 -172 4 -8 7 -37 5 -65 -2 -37 -1 -43
4 -22 4 17 24 56 45 87 20 31 37 63 37 71 0 24 62 71 151 115 47 23 90 42 95
42 5 1 27 16 49 36 39 33 39 35 21 49 -32 24 -66 17 -169 -34z"/>
<path d="M11205 22830 c-39 -6 -39 -6 -15 -17 31 -13 82 -36 93 -41 5 -2 7 8
5 23 -4 33 -27 43 -83 35z"/>
<path d="M10980 20959 c-6 -11 -9 -23 -6 -27 3 -5 -8 -28 -25 -53 -16 -24 -32
-60 -35 -79 -4 -19 -13 -48 -21 -63 -8 -16 -20 -59 -28 -95 -7 -37 -23 -103
-34 -146 -12 -44 -21 -89 -21 -100 1 -18 5 -16 34 17 25 28 32 44 28 63 -9 48
20 166 53 219 18 28 35 62 39 78 3 15 11 27 16 27 6 0 10 5 10 11 0 7 17 31
39 54 54 59 65 81 43 88 -9 3 -32 10 -50 15 -28 9 -33 8 -42 -9z"/>
<path d="M9812 20660 c0 -14 2 -19 5 -12 2 6 2 18 0 25 -3 6 -5 1 -5 -13z"/>
<path d="M9796 20609 c-30 -141 -66 -393 -50 -349 19 53 38 89 44 85 5 -3 11
34 14 82 4 49 8 109 10 135 3 53 -9 87 -18 47z"/>
<path d="M10685 19190 c-3 -5 -19 -10 -34 -10 -16 0 -34 -7 -41 -15 -10 -12
-9 -15 7 -15 10 0 23 4 29 8 13 12 82 31 124 35 22 2 14 4 -22 5 -31 1 -60 -2
-63 -8z"/>
<path d="M6130 5790 c0 -5 5 -10 10 -10 6 0 10 5 10 10 0 6 -4 10 -10 10 -5 0
-10 -4 -10 -10z"/>
<path d="M6150 5722 c0 -7 -8 -12 -18 -12 -24 0 -42 -19 -42 -45 0 -11 -13
-47 -30 -80 -32 -65 -37 -84 -17 -63 17 19 32 45 63 108 15 30 34 63 42 73 9
9 12 20 9 24 -4 3 -7 1 -7 -5z"/>
<path d="M5495 2792 c-4 -9 -11 -33 -16 -52 -4 -19 -14 -60 -22 -91 -12 -47
-12 -61 -1 -87 11 -28 18 -32 52 -32 66 0 74 31 35 152 -8 26 -14 55 -13 65 4
35 0 51 -14 56 -8 3 -18 -2 -21 -11z"/>
<path d="M5660 2712 c0 -126 -90 -259 -198 -295 -31 -10 -63 -16 -73 -14 -45
12 -47 -63 -5 -126 13 -18 28 -48 34 -66 17 -49 73 -120 100 -127 13 -4 43 0
65 7 23 8 44 14 47 14 19 1 40 31 76 105 86 177 92 269 30 438 -25 65 -55 122
-66 122 -6 0 -10 -26 -10 -58z"/>
<path d="M5356 2638 c-9 -34 -7 -191 3 -206 6 -10 10 -10 20 2 10 12 11 42 6
121 -7 102 -16 129 -29 83z"/>
<path d="M5297 2147 c-20 -6 -36 -15 -34 -21 2 -7 118 -38 123 -32 1 0 -5 16
-12 34 -15 34 -19 35 -77 19z"/>
<path d="M7684 30216 c-102 -26 -114 -31 -114 -51 0 -30 37 -37 79 -15 22 11
54 20 70 20 16 0 33 5 37 11 9 15 83 3 105 -17 24 -21 136 -74 159 -74 11 0
28 -4 38 -10 9 -5 67 -30 127 -55 137 -56 148 -64 165 -114 7 -22 21 -48 32
-57 12 -12 18 -31 18 -61 0 -23 5 -43 10 -43 12 0 14 147 1 154 -4 3 -11 33
-15 66 -7 57 -10 62 -48 88 -105 70 -188 104 -323 132 -33 7 -71 16 -85 20
-14 5 -45 11 -70 14 -25 3 -56 8 -70 10 -14 3 -66 -5 -116 -18z"/>
<path d="M7015 29710 c-3 -5 1 -10 10 -10 9 0 13 5 10 10 -3 6 -8 10 -10 10
-2 0 -7 -4 -10 -10z"/>
<path d="M7998 28809 c-42 -24 2 -62 87 -73 22 -3 72 -10 110 -16 39 -6 88
-12 110 -14 22 -2 92 -11 155 -19 63 -9 135 -19 160 -22 25 -3 77 -10 115 -16
39 -5 111 -12 161 -15 76 -5 96 -3 118 11 14 10 26 25 26 35 0 21 -45 60 -69
60 -10 0 -21 4 -26 9 -6 5 -28 11 -50 14 -22 3 -62 11 -90 17 -116 26 -167 32
-285 37 -82 3 -131 0 -145 -7 -23 -12 -318 -10 -345 3 -8 3 -23 2 -32 -4z"/>
<path d="M3620 22478 c-46 -39 -71 -71 -96 -120 -19 -37 -34 -74 -34 -82 0
-21 -55 -149 -106 -248 -73 -142 -94 -210 -94 -309 0 -67 4 -90 16 -100 34
-28 74 32 114 171 11 41 28 97 36 123 8 26 68 157 134 290 155 315 151 307
145 318 -14 22 -56 6 -115 -43z"/>
<path d="M3029 21434 c-46 -106 -51 -395 -9 -549 18 -70 28 -87 73 -132 28
-29 54 -53 57 -53 10 0 47 66 68 123 18 48 22 80 23 190 0 73 5 184 12 248 7
64 10 127 7 139 -4 18 -21 28 -85 47 -131 41 -122 42 -146 -13z"/>
<path d="M4538 17183 c6 -10 38 -45 71 -78 l60 -60 98 -5 c92 -5 123 0 123 21
0 5 -13 9 -29 9 -15 0 -53 9 -82 21 -30 12 -72 28 -94 36 -22 8 -66 28 -98 45
-48 24 -57 26 -49 11z"/>
<path d="M9735 16868 c-3 -8 1 -30 9 -49 l15 -34 1 42 c0 42 -15 67 -25 41z"/>
<path d="M7116 14793 c-8 -10 -51 -56 -95 -103 -96 -102 -141 -158 -141 -176
0 -7 -18 -28 -40 -45 -34 -28 -40 -37 -35 -60 4 -18 -3 -47 -23 -90 -48 -103
-62 -139 -62 -157 -1 -9 -16 -35 -35 -57 -31 -37 -38 -40 -81 -39 -62 1 -84
26 -84 98 0 54 -15 94 -24 66 -11 -37 -15 -80 -6 -80 15 0 12 -28 -6 -55 -11
-17 -15 -39 -12 -67 3 -24 1 -76 -3 -115 -6 -59 -13 -78 -34 -99 -14 -14 -33
-37 -42 -52 -10 -15 -23 -31 -30 -35 -7 -4 -13 -15 -13 -22 0 -8 -4 -15 -9
-15 -5 0 -14 -14 -21 -31 -12 -27 -11 -33 3 -41 22 -12 23 -115 3 -184 -14
-47 -42 -460 -50 -744 -3 -69 -7 -159 -11 -200 -3 -41 -2 -194 2 -340 10 -328
7 -424 -13 -416 -8 3 -14 -1 -14 -10 0 -9 -7 -31 -15 -49 -24 -49 -12 -415 15
-450 31 -41 45 -304 20 -365 -7 -17 -14 -30 -16 -30 -2 0 -20 9 -40 21 -34 19
-38 19 -53 4 -13 -13 -16 -38 -13 -147 1 -75 7 -137 13 -144 6 -7 8 -18 4 -24
-3 -6 3 -26 15 -45 12 -20 19 -42 16 -51 -3 -8 -2 -12 4 -9 6 4 10 -15 11 -47
0 -29 2 -156 4 -283 3 -221 6 -279 19 -382 7 -51 5 -54 -84 -138 -11 -11 -35
-44 -52 -75 l-32 -55 -1 -285 c-1 -246 -4 -289 -18 -315 -23 -41 -3 -45 36 -7
18 17 58 48 89 69 31 21 191 169 355 329 351 344 374 365 435 414 154 124 391
350 446 425 20 28 40 55 44 60 5 6 34 46 67 90 63 86 276 307 361 374 52 41
103 54 126 31 6 -6 23 13 49 58 41 69 42 77 61 282 5 62 2 91 -19 170 -32 123
-51 175 -99 285 -111 250 -106 237 -128 375 -14 88 -36 186 -71 315 -33 121
-124 316 -278 593 -54 97 -73 148 -132 342 -13 41 -39 100 -60 130 -114 171
-252 386 -259 405 -5 13 -14 26 -20 30 -6 4 -14 14 -18 24 -4 9 -64 102 -134
208 -71 105 -128 194 -128 198 0 4 16 25 35 46 19 22 35 49 35 62 0 12 11 46
25 75 16 35 25 72 25 103 0 27 6 65 14 84 21 51 121 170 175 209 26 19 69 58
95 86 46 49 47 52 30 71 -21 24 -59 25 -78 2z"/>
<path d="M7988 10604 c-14 -13 -8 -41 13 -65 11 -13 17 -17 13 -9 -4 8 -10 29
-13 48 -3 19 -9 30 -13 26z"/>
<path d="M4306 6243 c-10 -28 -12 -49 -7 -53 23 -13 31 -70 30 -203 0 -78 -5
-164 -10 -192 -6 -27 -14 -72 -18 -100 -4 -27 -11 -58 -16 -67 -4 -10 -3 -18
1 -18 5 0 27 44 49 98 l40 97 3 165 c3 155 -4 235 -29 298 -13 34 -26 27 -43
-25z"/>
<path d="M4281 5564 c0 -11 3 -14 6 -6 3 7 2 16 -1 19 -3 4 -6 -2 -5 -13z"/>
</g>
</svg>
