<?xml version="1.0" standalone="no"?>
<!DOCTYPE svg PUBLIC "-//W3C//DTD SVG 20010904//EN"
 "http://www.w3.org/TR/2001/REC-SVG-20010904/DTD/svg10.dtd">
<svg version="1.0" xmlns="http://www.w3.org/2000/svg"
 width="1442.000000pt" height="2509.000000pt" viewBox="0 0 1442.000000 2509.000000"
 preserveAspectRatio="xMidYMid meet">

<g transform="translate(0.000000,2509.000000) scale(0.100000,-0.100000)"
fill="#000000" stroke="none">
<path d="M7130 18461 c-8 -6 -36 -11 -61 -11 -33 0 -51 -6 -64 -20 -10 -11
-22 -17 -26 -14 -5 3 -37 -8 -71 -24 -35 -16 -88 -39 -118 -52 -30 -12 -64
-30 -75 -39 -11 -10 -36 -28 -57 -40 -80 -47 -137 -134 -178 -271 -18 -62 -22
-99 -23 -215 0 -85 5 -158 13 -185 7 -25 15 -83 17 -130 4 -79 6 -87 35 -113
28 -26 30 -27 35 -7 7 26 15 25 95 -7 53 -22 70 -34 80 -58 l13 -30 5 29 c8
45 87 66 251 66 93 0 126 3 127 13 0 6 2 21 4 31 3 17 -7 21 -67 32 -99 18
-110 18 -95 -1 11 -13 6 -15 -33 -15 -24 0 -64 -7 -87 -15 -50 -18 -50 -18
-50 -5 0 6 9 10 19 10 11 0 23 5 26 10 10 17 -18 11 -54 -11 l-33 -20 4 30 c4
26 2 29 -13 20 -10 -5 -24 -28 -30 -50 -10 -31 -15 -37 -21 -25 -5 9 -15 16
-22 16 -7 0 -21 7 -32 16 -16 13 -16 15 -1 10 13 -4 17 0 17 18 0 27 -39 40
-77 25 -19 -7 -24 -5 -27 14 -9 43 -12 198 -4 203 4 3 8 15 8 26 0 12 18 54
40 94 22 40 49 98 61 129 16 43 30 61 60 80 21 14 45 25 53 25 8 0 46 14 86
31 40 17 81 28 92 26 14 -4 18 -1 14 8 -4 10 9 15 47 18 88 8 116 5 119 -11 4
-21 164 -60 253 -62 182 -2 397 -108 421 -207 4 -15 13 -38 20 -52 8 -14 14
-38 14 -53 0 -30 16 -46 32 -30 8 8 17 4 30 -13 23 -30 20 -64 -7 -79 -10 -6
-27 -20 -36 -31 -16 -18 -20 -18 -40 -7 -20 13 -21 12 -15 -12 6 -25 5 -26
-21 -20 -16 3 -43 13 -61 21 -18 8 -41 11 -50 7 -9 -3 -60 -10 -113 -14 -73
-5 -106 -13 -139 -31 -41 -23 -41 -24 -21 -38 12 -7 21 -17 21 -22 0 -14 -22
-11 -39 5 -9 8 -34 17 -56 21 l-40 7 27 -24 c20 -17 27 -32 26 -60 0 -20 3
-41 6 -46 3 -5 8 -30 11 -55 3 -25 15 -67 26 -92 11 -26 18 -53 15 -60 -3 -8
0 -15 5 -17 5 -2 10 -14 11 -28 1 -14 8 -33 16 -42 10 -12 11 -18 4 -18 -7 0
-12 5 -12 10 0 6 -7 10 -15 10 -15 0 -21 26 -7 32 4 2 0 11 -10 21 -18 17 -20
16 -45 -9 -31 -31 -84 -46 -130 -38 -43 8 -83 -3 -83 -21 0 -8 -4 -15 -10 -15
-16 0 -11 -20 6 -27 10 -4 20 0 26 10 12 22 81 23 99 1 10 -12 24 -15 56 -10
40 5 45 3 55 -20 11 -23 17 -25 50 -21 73 10 82 34 47 131 -27 77 -32 236 -8
236 9 0 26 9 38 19 26 23 47 18 54 -10 3 -11 11 -19 19 -17 18 4 79 -34 75
-47 -2 -5 -15 -8 -28 -7 -20 3 -22 1 -11 -10 9 -9 43 -13 119 -12 111 1 112 1
128 49 6 16 8 17 12 5 3 -8 13 -24 23 -35 27 -31 34 -79 15 -114 -14 -28 -24
-34 -80 -44 -16 -3 -12 -7 18 -20 36 -15 37 -18 37 -66 0 -44 -14 -96 -30
-111 -31 -29 -51 -99 -67 -237 -3 -29 -13 -50 -30 -65 -14 -13 -32 -31 -41
-40 -9 -10 -22 -18 -28 -18 -6 0 -33 -22 -60 -50 -27 -27 -52 -50 -56 -50 -5
0 -38 -14 -74 -31 -36 -17 -93 -35 -127 -40 -34 -4 -81 -11 -103 -15 -24 -4
-82 0 -135 10 -61 10 -105 13 -124 7 l-30 -8 28 -8 c15 -4 27 -13 27 -21 0 -8
7 -14 16 -14 9 0 25 -11 35 -24 12 -15 44 -32 88 -45 39 -12 73 -26 76 -32 4
-5 14 -7 23 -5 41 13 182 -70 182 -106 0 -22 38 -39 61 -27 9 4 33 26 55 47
32 32 48 41 86 45 65 6 90 -11 77 -55 -12 -42 -12 -135 0 -143 5 -3 12 7 14
22 3 24 4 22 6 -8 2 -66 -18 -142 -49 -180 -16 -21 -37 -54 -47 -76 -10 -21
-22 -41 -26 -44 -5 -3 -8 -9 -8 -13 1 -3 -6 -20 -15 -37 -10 -20 -14 -43 -10
-61 26 -132 -270 -321 -452 -288 -97 17 -202 49 -276 84 -55 26 -88 51 -147
112 -42 43 -88 101 -104 127 l-27 48 1 189 c1 105 -2 190 -6 190 -4 0 -22 -71
-39 -158 -19 -98 -41 -181 -59 -217 -20 -43 -27 -71 -24 -104 7 -112 -3 -206
-62 -596 -29 -191 -126 -616 -166 -725 -19 -52 -56 -158 -82 -235 -74 -217
-205 -534 -288 -700 -67 -135 -214 -375 -230 -375 -3 0 -3 14 1 30 3 17 4 30
1 30 -2 0 -23 -35 -46 -77 -59 -109 -294 -489 -372 -603 -66 -96 -146 -194
-153 -187 -3 2 10 44 28 92 30 83 31 88 14 101 -17 12 -24 5 -73 -74 -30 -48
-69 -103 -87 -122 -19 -19 -66 -81 -106 -137 -39 -56 -78 -107 -86 -114 -8 -6
-14 -18 -14 -25 0 -9 28 3 75 33 41 25 78 43 82 39 4 -3 -3 -30 -14 -59 -12
-28 -26 -83 -33 -121 -16 -100 -69 -244 -106 -294 -36 -46 -74 -154 -74 -208
0 -24 -5 -34 -15 -34 -8 0 -15 -4 -15 -10 0 -17 33 -94 47 -111 20 -23 17 -26
-34 -34 -103 -15 -399 -149 -598 -270 -155 -94 -180 -121 -136 -145 28 -15 51
-12 51 5 0 18 2 19 88 36 61 12 63 13 57 39 -5 22 2 34 42 71 93 87 225 160
353 196 204 56 185 53 247 37 96 -25 141 -51 232 -131 48 -43 113 -100 144
-126 l57 -48 -6 -54 c-6 -49 -5 -54 20 -70 14 -10 35 -15 46 -12 13 3 24 -1
30 -14 6 -11 21 -19 35 -19 20 0 25 -5 25 -23 0 -28 -29 -57 -56 -57 -30 0
-126 39 -162 66 -17 14 -32 21 -32 15 0 -17 81 -86 103 -87 12 -1 43 -4 70 -9
36 -6 53 -4 72 9 41 27 47 48 24 87 -11 19 -33 62 -50 97 -27 53 -48 77 -145
159 -63 53 -114 100 -114 104 0 13 72 -2 120 -24 25 -11 72 -46 105 -77 135
-126 163 -146 229 -168 37 -12 87 -22 112 -22 44 0 45 -1 65 -47 27 -63 138
-230 181 -270 76 -72 427 -255 573 -298 130 -39 306 -45 472 -16 103 18 130
20 170 10 27 -7 53 -15 58 -20 6 -4 24 -13 40 -19 l30 -11 -29 24 c-35 28 -31
32 63 52 39 8 96 23 128 34 32 10 94 29 138 41 147 39 139 34 226 143 45 56
90 110 100 120 11 10 19 22 19 27 0 5 13 18 29 29 l30 21 27 -25 c23 -21 27
-35 32 -96 6 -90 -10 -86 -29 6 -9 47 -15 61 -21 50 -6 -9 -3 -37 7 -73 31
-106 24 -291 -12 -333 -8 -10 -34 -22 -59 -28 -47 -12 -64 -35 -64 -87 l0 -25
33 31 c17 16 39 29 47 27 8 -1 23 -26 33 -57 9 -30 25 -63 35 -72 17 -18 19
-17 46 11 27 28 27 30 12 59 -22 43 -20 55 14 86 23 20 28 31 22 44 -5 9 -8
105 -8 212 l1 195 40 3 c98 6 105 9 105 50 0 21 5 43 12 50 9 9 9 15 0 24 -7
7 -12 15 -12 19 0 9 61 81 141 167 33 34 59 69 59 77 0 23 -10 18 -47 -20 -19
-19 -43 -35 -53 -35 -10 0 -23 -6 -27 -14 -4 -7 -35 -34 -68 -60 -33 -26 -76
-66 -96 -88 l-36 -40 -32 16 c-36 19 -38 30 -12 72 20 33 112 158 158 214 47
57 116 170 109 177 -10 10 -108 -42 -138 -74 -34 -36 -53 -84 -37 -93 8 -6 8
-9 0 -14 -6 -4 -11 -4 -11 1 0 4 -9 -10 -21 -32 -12 -22 -32 -51 -45 -66 -13
-14 -24 -29 -24 -33 0 -17 -54 -71 -81 -83 -16 -7 -29 -17 -29 -23 0 -18 -28
-11 -59 16 -47 39 -42 75 22 165 85 119 119 177 115 195 -2 13 -14 4 -43 -34
-21 -29 -43 -52 -47 -52 -4 0 -8 -5 -8 -11 0 -18 -71 -98 -93 -105 -12 -4 -33
-15 -46 -25 -21 -17 -25 -17 -44 -4 -12 8 -27 15 -34 15 -16 0 -27 -40 -14
-53 15 -15 14 -27 -4 -27 -13 0 -20 -19 -16 -43 1 -5 -3 -6 -9 -2 -25 15 6
179 51 267 36 70 15 64 -62 -16 -60 -63 -89 -85 -149 -113 -70 -33 -75 -33
-87 -16 -21 27 -12 44 36 72 38 23 48 36 72 96 24 58 40 80 97 132 38 34 86
84 107 111 28 37 54 57 106 82 71 33 104 60 82 67 -7 2 -9 11 -6 19 3 7 -8 37
-24 66 -17 29 -42 86 -57 125 l-28 73 17 126 c9 70 29 193 45 274 43 221 53
305 47 383 -5 58 -3 73 10 82 14 11 14 14 -5 33 -27 27 -28 41 -4 58 16 13 16
13 0 14 -10 0 -18 6 -19 13 -1 37 -11 149 -24 277 -30 308 -37 811 -15 1138
19 287 29 412 45 577 9 88 20 315 26 505 5 190 10 352 10 360 1 8 -10 42 -24
75 -45 104 -71 278 -73 465 0 123 -4 176 -16 208 -9 23 -12 42 -8 42 5 0 11
24 14 53 3 28 9 91 14 138 5 47 16 97 24 110 15 25 38 98 58 184 14 61 35 96
54 89 21 -8 38 4 88 67 82 101 107 185 105 349 l-2 105 -26 -3 c-21 -2 -29 3
-42 30 -16 36 -17 26 23 273 17 103 20 153 15 240 -7 108 -25 201 -49 240 -7
11 -21 43 -31 70 -23 63 -64 111 -140 167 -85 62 -190 128 -202 128 -6 0 -23
10 -38 22 -25 19 -41 22 -144 23 -64 1 -161 5 -216 9 -63 4 -106 3 -115 -3z
m614 -1024 c11 -8 15 -19 10 -30 -5 -14 -19 -17 -71 -17 -40 0 -62 -4 -58 -10
4 -6 -10 -10 -35 -10 -33 0 -41 3 -36 15 4 12 -5 15 -47 15 l-51 0 24 17 c18
13 53 20 120 24 52 3 102 6 111 7 8 1 23 -4 33 -11z m161 -157 c3 -5 1 -10 -4
-10 -6 0 -11 5 -11 10 0 6 2 10 4 10 3 0 8 -4 11 -10z m245 -6424 c0 -3 -4 -8
-10 -11 -5 -3 -10 -1 -10 4 0 6 5 11 10 11 6 0 10 -2 10 -4z m-30 -36 c0 -5
-2 -10 -4 -10 -3 0 -8 5 -11 10 -3 6 -1 10 4 10 6 0 11 -4 11 -10z m-500 -320
c13 -13 15 -20 7 -20 -14 0 -37 20 -37 32 0 13 9 9 30 -12z"/>
<path d="M6809 17565 c-57 -15 -71 -23 -63 -36 7 -12 84 -2 99 12 15 15 36 10
67 -16 16 -14 39 -25 50 -25 12 0 46 -9 77 -19 31 -11 68 -22 83 -25 20 -5 30
-14 34 -34 4 -15 13 -35 21 -44 10 -11 13 -27 8 -47 -10 -45 12 -39 24 7 18
64 14 89 -15 96 -18 5 -24 11 -20 23 11 28 -56 63 -164 87 -30 7 -68 18 -83
24 -34 15 -58 14 -118 -3z"/>
<path d="M6410 17295 c0 -20 5 -25 24 -25 34 0 41 16 14 34 -31 22 -38 20 -38
-9z"/>
<path d="M6511 17197 c-6 -8 -8 -16 -5 -20 10 -9 34 4 34 19 0 18 -14 18 -29
1z"/>
<path d="M7110 16798 c-30 -4 -74 -5 -97 -2 -25 3 -43 1 -43 -4 0 -14 86 -42
129 -42 51 -1 194 -23 209 -33 7 -5 10 -12 7 -17 -10 -17 48 -20 113 -5 128
29 116 23 97 45 -9 10 -36 22 -58 25 -23 4 -59 16 -80 26 -30 16 -56 19 -130
17 -50 -1 -117 -5 -147 -10z"/>
<path d="M7260 16680 c-7 -4 -21 -5 -31 -3 -30 8 -22 -14 9 -25 27 -9 72 2 72
18 0 12 -36 19 -50 10z"/>
<path d="M6562 16130 c0 -19 2 -27 5 -17 2 9 2 25 0 35 -3 9 -5 1 -5 -18z"/>
<path d="M6310 15709 c0 -5 5 -7 10 -4 6 3 10 8 10 11 0 2 -4 4 -10 4 -5 0
-10 -5 -10 -11z"/>
<path d="M8050 15240 c0 -76 14 -148 33 -166 4 -4 7 3 7 15 0 14 7 25 20 28
17 5 20 14 20 65 0 55 -3 62 -40 101 l-39 42 -1 -85z"/>
<path d="M7962 15250 c0 -14 2 -19 5 -12 2 6 2 18 0 25 -3 6 -5 1 -5 -13z"/>
<path d="M7967 15196 c-3 -8 -2 -18 3 -21 13 -8 24 15 12 27 -6 6 -11 4 -15
-6z"/>
<path d="M6294 15158 l-19 -23 23 19 c21 18 27 26 19 26 -2 0 -12 -10 -23 -22z"/>
<path d="M8250 15130 c0 -8 31 -30 43 -30 2 0 4 7 4 15 0 8 -4 12 -8 9 -4 -2
-10 0 -14 6 -8 13 -25 13 -25 0z"/>
<path d="M6106 14911 c-4 -7 -5 -15 -2 -18 9 -9 19 4 14 18 -4 11 -6 11 -12 0z"/>
<path d="M8090 14467 c0 -19 16 -31 24 -18 3 5 -1 14 -9 21 -12 10 -15 10 -15
-3z"/>
<path d="M8804 14144 c-5 -36 -3 -49 10 -62 15 -15 16 -15 16 0 0 9 -5 20 -11
23 -6 4 -8 22 -4 46 4 21 4 39 1 39 -2 0 -8 -21 -12 -46z"/>
<path d="M9040 14115 c-12 -19 -30 -40 -41 -45 -10 -6 -36 -37 -58 -69 -40
-58 -86 -98 -108 -93 -15 3 -18 -54 -4 -62 5 -3 17 6 26 21 10 14 52 62 95
107 69 73 129 160 117 172 -3 3 -15 -11 -27 -31z"/>
<path d="M5724 13932 c6 -10 1 -11 -17 -7 -20 6 -26 2 -31 -20 -8 -31 -1 -45
22 -45 24 0 49 57 32 73 -10 9 -11 9 -6 -1z"/>
<path d="M8865 13779 c-4 -6 -13 -8 -21 -5 -11 4 -14 -5 -13 -37 0 -33 2 -37
9 -21 4 11 22 33 40 47 27 23 29 27 11 27 -11 0 -23 -5 -26 -11z"/>
<path d="M4879 13654 c-27 -28 -30 -35 -15 -32 11 1 28 18 39 36 24 41 19 40
-24 -4z"/>
<path d="M8890 13593 c-8 -3 -32 -14 -54 -24 -36 -19 -67 -18 -37 0 12 8 -61
8 -174 1 -47 -3 -46 -3 23 -10 80 -7 95 -18 81 -59 -7 -22 -49 -295 -49 -319
0 -4 4 -1 9 7 5 8 12 42 16 75 14 133 69 227 155 263 44 19 90 51 90 64 0 10
-35 11 -60 2z"/>
<path d="M9230 13525 c-48 -49 -47 -52 5 -31 23 10 37 24 41 41 3 14 4 28 2
30 -2 3 -24 -16 -48 -40z"/>
<path d="M8164 13545 c-4 -9 -4 -18 -2 -21 9 -8 39 8 35 19 -6 18 -27 20 -33
2z"/>
<path d="M7918 13453 c-37 -9 -9 -73 31 -73 10 0 24 7 31 15 15 18 7 19 -21 4
-15 -7 -24 -7 -35 2 -19 15 -18 40 1 33 9 -4 15 0 15 10 0 9 -1 15 -2 15 -2
-1 -11 -3 -20 -6z"/>
<path d="M4602 13384 c-28 -19 -40 -42 -58 -112 -8 -31 -29 -81 -45 -110 -17
-30 -28 -59 -25 -65 2 -7 8 -2 11 11 4 12 11 22 16 22 13 0 46 70 54 113 4 20
19 49 34 64 15 16 38 43 50 61 21 30 21 32 4 32 -10 0 -29 -7 -41 -16z"/>
<path d="M9185 13269 c-4 -6 -5 -12 -2 -15 2 -3 7 2 10 11 7 17 1 20 -8 4z"/>
<path d="M8666 13092 c-3 -5 -8 -29 -10 -53 -6 -44 -6 -44 5 -9 6 19 15 43 20
53 9 17 -5 25 -15 9z"/>
<path d="M4130 12975 c7 -8 19 -15 27 -15 13 0 13 3 3 15 -7 8 -19 15 -27 15
-13 0 -13 -3 -3 -15z"/>
<path d="M5305 12916 c-20 -30 -16 -60 8 -64 12 -3 17 3 17 22 0 17 5 26 16
26 21 0 14 34 -8 38 -9 2 -24 -8 -33 -22z"/>
<path d="M8616 12864 c-3 -9 -6 -24 -6 -35 0 -19 0 -19 20 1 11 11 31 22 46
26 19 5 22 9 12 15 -22 14 -65 10 -72 -7z"/>
<path d="M8600 12766 c0 -14 5 -26 10 -26 6 0 10 5 10 10 0 6 7 10 15 10 8 0
15 5 15 10 0 6 -4 10 -9 10 -5 0 -16 3 -25 6 -12 5 -16 0 -16 -20z"/>
<path d="M9339 12663 c10 -21 21 -45 24 -53 4 -11 6 -10 6 3 1 24 -28 87 -40
87 -5 0 0 -17 10 -37z"/>
<path d="M8580 12553 c0 -9 -6 -24 -14 -32 -18 -21 -76 -225 -76 -268 0 -14 2
-14 18 0 13 12 18 33 19 74 2 59 10 73 69 110 18 11 18 12 -3 12 -30 1 -29 7
12 52 41 46 43 55 13 63 -34 9 -38 8 -38 -11z"/>
<path d="M7941 12379 c-20 -92 -41 -222 -37 -226 2 -2 10 9 17 26 7 16 16 25
20 20 3 -6 9 43 12 108 3 65 4 119 2 121 -2 2 -8 -20 -14 -49z"/>
<path d="M5096 12351 c-4 -7 -5 -15 -2 -18 9 -9 19 4 14 18 -4 11 -6 11 -12 0z"/>
<path d="M4280 12213 c0 -12 5 -25 10 -28 13 -8 13 15 0 35 -8 12 -10 11 -10
-7z"/>
<path d="M9313 12125 c1 -27 -1 -75 -5 -105 l-7 -55 25 53 c28 57 27 100 0
138 -13 17 -15 14 -13 -31z"/>
<path d="M9160 11694 c0 -8 5 -12 10 -9 6 4 8 11 5 16 -9 14 -15 11 -15 -7z"/>
<path d="M8346 11570 c-24 -22 -54 -56 -67 -75 -33 -48 -58 -47 -56 3 2 31 -1
37 -20 40 -13 2 -24 11 -25 20 -1 9 -4 -28 -7 -83 -3 -55 -3 -101 1 -103 4 -2
28 11 53 28 44 30 50 32 103 25 63 -8 117 -27 144 -52 25 -23 23 -4 -3 23 -34
36 -13 47 30 16 27 -19 43 -39 51 -67 7 -22 19 -48 27 -57 9 -10 13 -24 10
-32 -11 -27 -41 -9 -67 39 -25 47 -50 69 -50 45 0 -29 84 -182 104 -190 37
-14 49 -36 42 -77 -3 -21 -8 -51 -10 -68 -7 -45 -22 -107 -35 -138 -6 -16 -11
-43 -11 -62 0 -27 -8 -39 -39 -64 -21 -17 -46 -31 -55 -31 -18 0 -79 -54 -70
-62 3 -4 -13 -21 -36 -39 -43 -34 -79 -89 -60 -89 5 0 10 4 10 10 0 5 15 12
33 15 19 4 71 32 118 63 72 49 89 67 122 123 21 36 40 79 42 95 13 86 30 123
72 153 87 63 182 162 188 195 15 77 -33 223 -92 278 -35 34 -109 67 -148 68
-16 0 -43 7 -59 15 -19 10 -59 15 -127 15 -55 0 -99 4 -99 9 0 11 72 39 115
44 17 2 4 5 -28 6 -54 1 -60 -1 -101 -39z m227 -82 c-10 -11 -19 -15 -21 -8
-5 15 18 41 30 34 5 -3 1 -15 -9 -26z m127 -337 c0 -5 -11 -11 -25 -13 -24 -5
-32 2 -18 15 9 10 43 8 43 -2z"/>
<path d="M7848 11520 c-30 -31 -35 -49 -16 -68 17 -17 49 -15 42 2 -3 8 2 28
10 45 30 58 10 70 -36 21z"/>
<path d="M8404 10867 c-18 -38 -15 -53 9 -44 18 7 31 57 18 70 -7 7 -16 -2
-27 -26z"/>
<path d="M4835 10693 c-38 -20 -38 -20 -30 -32 4 -8 13 -6 28 4 28 20 47 19
63 -2 7 -10 13 -13 14 -8 0 12 -10 26 -30 42 -12 9 -22 8 -45 -4z"/>
<path d="M4023 10613 c9 -2 23 -2 30 0 6 3 -1 5 -18 5 -16 0 -22 -2 -12 -5z"/>
<path d="M4260 10365 c0 -5 5 -17 10 -25 5 -8 10 -10 10 -5 0 6 -5 17 -10 25
-5 8 -10 11 -10 5z"/>
<path d="M4280 10311 c0 -5 5 -13 10 -16 6 -3 10 -2 10 4 0 5 -4 13 -10 16 -5
3 -10 2 -10 -4z"/>
<path d="M4480 10010 c0 -5 5 -10 11 -10 5 0 7 5 4 10 -3 6 -8 10 -11 10 -2 0
-4 -4 -4 -10z"/>
<path d="M6425 9140 c-77 -86 -98 -100 -102 -69 -1 8 -5 32 -8 54 -7 36 -8 38
-16 17 -14 -36 1 -114 23 -120 22 -5 22 -5 -1 -56 -42 -93 -51 -118 -45 -127
9 -15 66 31 60 48 -3 8 2 29 11 46 9 18 16 42 14 54 -4 36 25 77 104 148 42
38 74 73 72 79 -9 28 -38 9 -112 -74z"/>
<path d="M6150 8910 c0 -5 5 -10 10 -10 6 0 10 5 10 10 0 6 -4 10 -10 10 -5 0
-10 -4 -10 -10z"/>
<path d="M6157 8855 c-4 -22 -9 -62 -13 -90 -4 -32 -17 -63 -34 -85 -35 -45
-53 -80 -42 -80 11 0 6 -98 -7 -133 -13 -34 -3 -153 12 -138 15 15 61 190 78
296 14 90 38 165 54 172 20 7 19 21 -2 25 -9 2 -22 19 -28 38 l-12 35 -6 -40z"/>
<path d="M6011 7527 c-7 -21 -10 -53 -7 -70 3 -18 8 -61 10 -95 2 -35 8 -68
13 -73 17 -17 22 90 9 186 l-12 90 -13 -38z"/>
<path d="M5964 7065 c-4 -8 -3 -32 2 -53 4 -20 6 -42 5 -49 -1 -6 3 -14 9 -18
8 -5 7 -11 -1 -21 -9 -11 -8 -14 3 -14 7 0 19 14 25 30 6 17 7 30 3 30 -5 0
-2 12 6 28 7 15 14 37 14 50 0 19 -4 22 -20 17 -11 -4 -20 -2 -20 4 0 16 -20
13 -26 -4z m24 -31 c0 -18 -3 -22 -9 -13 -11 18 -11 52 0 45 5 -3 9 -17 9 -32z"/>
<path d="M7090 6921 c0 -5 7 -15 17 -22 15 -13 15 -12 4 9 -12 23 -21 28 -21
13z"/>
<path d="M7050 6834 c28 -35 60 -59 60 -45 0 5 -19 24 -42 43 l-43 33 25 -31z"/>
<path d="M7160 6830 c0 -12 40 -33 48 -25 4 4 -2 13 -12 21 -23 16 -36 18 -36
4z"/>
<path d="M6006 4665 c-14 -13 -26 -29 -26 -36 0 -14 37 17 51 43 13 24 7 23
-25 -7z"/>
<path d="M4986 4530 c5 -93 2 -123 -26 -260 -18 -85 -33 -186 -35 -225 -3 -47
-9 -73 -19 -81 -9 -6 -12 -15 -7 -20 4 -5 18 -36 31 -69 18 -43 43 -78 92
-128 69 -70 76 -81 58 -92 -17 -11 -120 32 -147 61 -15 16 -30 29 -35 29 -10
0 -41 45 -31 45 4 0 4 4 -2 8 -13 9 -75 89 -75 96 0 21 -38 86 -50 86 -13 0
-13 2 -1 9 12 8 12 17 1 58 -7 26 -20 54 -28 61 -10 7 -11 12 -4 12 7 0 12 9
12 21 0 11 -4 17 -10 14 -6 -4 -10 6 -10 22 0 16 -5 34 -11 40 -8 8 -10 44 -7
107 2 53 0 96 -5 96 -11 0 -48 -83 -39 -90 4 -3 9 -29 10 -57 3 -44 0 -52 -13
-47 -8 3 -15 13 -15 20 0 8 -7 17 -15 20 -8 3 -19 21 -25 39 -14 42 -1 93 46
188 19 37 32 72 29 76 -17 29 -256 12 -308 -22 -12 -8 -48 -17 -80 -21 l-58
-8 7 -146 c6 -158 42 -439 69 -543 19 -70 53 -174 86 -259 33 -85 75 -246 88
-340 7 -47 16 -114 22 -150 5 -36 16 -130 25 -209 8 -80 20 -153 25 -163 6
-11 17 -45 25 -76 20 -79 88 -251 136 -347 22 -44 44 -87 48 -95 9 -19 75 -56
128 -71 65 -18 69 -37 75 -289 3 -118 10 -227 16 -243 16 -42 73 -113 105
-132 68 -41 167 -52 344 -38 75 5 82 8 80 26 -2 16 6 22 42 31 140 36 298 200
358 370 18 53 27 104 33 202 4 72 12 142 18 156 5 14 34 50 63 79 58 59 96 91
84 72 -27 -45 79 37 116 90 20 28 20 30 3 17 -11 -8 -33 -27 -49 -42 -17 -16
-34 -28 -39 -28 -10 0 23 48 51 73 11 10 18 26 15 35 -2 10 5 26 16 36 12 11
21 25 21 33 0 7 11 18 24 24 13 6 32 29 42 50 16 36 16 42 1 77 -9 20 -21 69
-26 107 -6 39 -20 106 -31 150 -12 44 -26 98 -31 120 -6 22 -19 50 -31 62 -11
12 -26 51 -34 88 -20 93 -36 121 -77 129 -29 5 -34 10 -30 30 3 13 -3 39 -14
57 -10 19 -23 48 -29 64 -9 25 -11 11 -10 -82 0 -62 4 -113 8 -113 4 0 5 -8 1
-17 -4 -12 1 -9 14 6 28 34 53 22 53 -23 l0 -36 -182 6 c-101 3 -185 8 -188
11 -3 2 -3 60 -2 127 4 122 -7 195 -33 216 -10 8 -10 0 -4 -32 13 -67 10 -192
-4 -228 -13 -29 -14 -21 -20 106 -5 96 -12 144 -22 160 -8 13 -15 34 -15 47 0
14 -6 30 -14 36 -8 7 -12 20 -9 30 5 19 -42 101 -58 101 -19 0 -7 32 31 82 22
29 40 62 41 73 0 11 29 56 65 100 36 44 90 114 122 156 80 106 176 209 196
209 9 0 16 7 16 15 0 8 9 31 20 51 12 20 19 38 16 41 -6 6 -96 -61 -166 -125
-33 -31 -79 -61 -106 -70 -29 -11 -54 -28 -63 -43 -9 -15 -24 -37 -34 -50 -10
-13 -32 -45 -48 -71 -17 -27 -36 -48 -42 -48 -7 -1 -32 -19 -57 -41 -26 -23
-37 -37 -25 -33 17 5 16 2 -5 -15 -14 -11 -31 -21 -37 -21 -7 0 -24 -18 -38
-40 -14 -23 -32 -43 -40 -47 -8 -3 -15 -11 -15 -17 0 -13 99 -14 119 -1 27 16
7 -27 -32 -71 -23 -27 -55 -68 -70 -91 -45 -71 -110 -91 -205 -64 -59 17 -126
85 -165 169 -28 59 -31 76 -31 162 0 97 22 217 51 278 12 25 15 58 11 157 -2
79 -8 129 -16 137 -9 9 -11 -11 -6 -92z m566 -856 c9 -11 26 -66 38 -123 18
-90 20 -116 11 -186 -5 -44 -18 -105 -28 -135 -16 -50 -21 -55 -50 -58 -28 -3
-32 0 -27 15 4 14 1 13 -15 -6 -17 -19 -22 -20 -27 -8 -3 8 -4 28 -2 44 3 24
7 28 30 25 24 -2 27 1 33 50 11 77 9 172 -4 176 -14 5 -14 64 1 114 10 34 9
42 -10 68 -12 16 -22 38 -22 50 0 19 2 20 28 6 15 -8 35 -22 44 -32z m-182 6
c0 -12 -24 -12 -60 0 -21 7 -19 8 18 9 23 1 42 -3 42 -9z m116 -62 c5 -16 0
-27 -20 -45 -34 -29 -53 -21 -32 13 18 27 20 38 6 29 -20 -12 -62 -108 -99
-229 -21 -67 -45 -135 -53 -151 -8 -17 -20 -55 -27 -86 -12 -55 -34 -99 -45
-89 -3 3 4 39 14 80 11 41 20 93 20 114 0 22 4 53 10 70 36 116 55 155 106
231 49 72 62 85 85 85 20 0 30 -6 35 -22z m-179 -45 c51 -8 28 -23 -37 -23
-54 0 -58 1 -53 21 5 17 11 20 32 14 14 -3 41 -9 58 -12z m13 -53 c0 -5 -4
-10 -10 -10 -5 0 -10 5 -10 10 0 6 5 10 10 10 6 0 10 -4 10 -10z m-701 -14
c24 -21 337 -176 400 -197 30 -11 64 -19 77 -19 29 0 38 -14 19 -30 -20 -16
-77 -2 -195 49 -101 44 -291 147 -321 174 -30 28 -10 50 20 23z m641 -106 c0
-5 -4 -10 -10 -10 -5 0 -10 5 -10 10 0 6 5 10 10 10 6 0 10 -4 10 -10z m90
-105 c-6 -15 -13 -26 -16 -23 -2 3 0 18 6 33 6 15 13 26 16 23 2 -3 0 -18 -6
-33z m765 -107 c-9 -56 -22 -70 -59 -66 -28 3 -30 6 -33 50 l-3 47 37 4 c21 2
44 4 51 5 11 2 12 -8 7 -40z m-337 -53 c7 -14 12 -35 12 -45 0 -17 5 -19 46
-13 44 6 149 -12 168 -28 5 -4 6 -16 2 -26 -5 -11 -10 -13 -14 -7 -4 7 -52 13
-109 16 -95 5 -103 3 -109 -14 -8 -26 3 -35 26 -20 11 7 31 12 46 12 21 0 25
-4 22 -22 -2 -19 -9 -23 -40 -24 -21 0 -40 -3 -43 -6 -3 -3 3 -39 14 -79 31
-116 52 -226 61 -319 5 -47 15 -137 24 -200 19 -143 19 -140 2 -140 -16 0 -39
135 -35 204 2 23 0 46 -3 51 -3 6 -9 37 -13 70 -5 49 -28 137 -70 273 -3 6
-13 12 -24 12 -29 0 -33 15 -11 35 21 19 26 50 11 60 -8 4 -71 -76 -71 -90 0
-2 13 -18 29 -34 16 -17 46 -60 66 -95 30 -54 38 -79 42 -140 7 -86 -14 -166
-56 -216 -31 -37 -92 -50 -142 -30 -18 8 -34 9 -37 4 -4 -5 -41 -10 -82 -11
-50 -1 -101 -10 -154 -27 -43 -14 -80 -26 -82 -26 -2 0 -4 11 -4 25 0 20 7 26
43 36 76 20 97 42 52 53 -16 4 -25 13 -25 26 0 23 32 27 86 11 24 -7 42 -4 73
10 22 10 41 22 41 28 0 18 -35 17 -68 -2 -37 -22 -52 -16 -33 14 7 12 11 22 9
23 -2 1 -20 9 -40 19 -39 17 -50 43 -23 53 8 3 40 -4 70 -17 61 -25 75 -20 75
29 0 22 -23 31 -35 12 -13 -22 -27 -9 -22 19 6 27 3 30 -23 36 -23 5 -30 12
-30 30 0 33 12 37 54 20 51 -22 54 -20 61 33 4 26 11 64 17 85 6 27 6 43 -2
52 -8 10 -4 21 16 44 19 23 24 35 16 43 -8 8 -8 17 -1 30 17 31 -7 20 -44 -22
-43 -47 -68 -93 -108 -203 -17 -45 -52 -116 -78 -157 -27 -41 -65 -108 -85
-147 -21 -42 -43 -73 -51 -73 -18 0 -18 5 -4 31 10 20 10 20 -30 -1 -59 -30
-50 -8 13 34 59 39 70 57 145 241 23 55 67 153 99 217 45 93 61 117 78 118 11
0 29 8 38 19 16 18 15 18 -56 14 l-73 -4 24 20 c24 22 33 24 91 21 28 -1 43 6
72 34 38 37 65 45 86 24 8 -8 17 -7 34 5 33 23 53 21 66 -8z m-697 -79 c-6 -7
-42 -17 -78 -21 -38 -4 -127 -28 -205 -56 -131 -46 -157 -50 -139 -20 14 22
208 80 306 92 49 6 92 13 94 15 2 2 11 4 19 4 11 0 12 -3 3 -14z m33 -147
c-17 -18 -44 -26 -44 -12 0 4 12 20 28 36 22 23 28 25 30 12 2 -9 -4 -25 -14
-36z m373 -103 c-8 -19 -37 -21 -37 -3 0 7 5 18 12 25 15 15 33 -1 25 -22z
m471 -95 c69 -35 142 -96 142 -119 0 -12 -9 -7 -32 16 -18 17 -68 47 -110 67
-75 34 -86 44 -71 58 9 10 7 10 71 -22z m-738 -395 c0 -2 -7 -6 -15 -10 -8 -3
-15 -1 -15 4 0 6 7 10 15 10 8 0 15 -2 15 -4z m-197 -755 c7 -27 -3 -34 -19
-13 -17 22 -17 32 0 32 7 0 16 -9 19 -19z"/>
<path d="M5656 3108 c-12 -16 -16 -46 -16 -108 0 -110 10 -125 38 -57 24 58
28 92 11 103 -6 4 -8 20 -5 39 8 41 -7 53 -28 23z"/>
<path d="M5581 2802 c-8 -18 -11 -35 -8 -38 8 -9 29 35 25 54 -2 12 -8 7 -17
-16z"/>
<path d="M5701 2744 c0 -11 3 -14 6 -6 3 7 2 16 -1 19 -3 4 -6 -2 -5 -13z"/>
<path d="M5616 2715 c-4 -16 -12 -45 -16 -63 -11 -43 -4 -62 25 -62 36 0 40
26 15 85 -5 11 -11 31 -13 45 -3 24 -4 24 -11 -5z"/>
<path d="M5710 2677 c0 -62 -52 -138 -101 -149 -51 -11 -65 -3 -45 26 13 21
13 26 1 36 -8 7 -15 27 -16 44 l-1 31 -9 -35 c-8 -33 4 -160 17 -182 3 -5 14
-6 25 -3 22 7 24 2 7 -25 -10 -16 -9 -23 11 -44 32 -34 55 -40 89 -22 35 18
73 98 80 167 4 46 -30 183 -49 195 -5 3 -9 -15 -9 -39z"/>
<path d="M5511 2391 c-40 -11 -34 -26 14 -37 50 -11 53 -9 27 22 -12 15 -24
19 -41 15z"/>
<path d="M4856 4574 c-11 -7 -17 -16 -15 -19 3 -3 14 2 25 9 10 8 17 17 14 19
-3 3 -14 -1 -24 -9z"/>
<path d="M4800 4565 c0 -8 5 -15 10 -15 6 0 10 7 10 15 0 8 -4 15 -10 15 -5 0
-10 -7 -10 -15z"/>
<path d="M5980 4439 c0 -5 5 -7 10 -4 6 3 10 8 10 11 0 2 -4 4 -10 4 -5 0 -10
-5 -10 -11z"/>
<path d="M5951 4343 c-13 -43 -29 -89 -36 -103 -7 -14 -16 -36 -20 -50 -6 -21
-3 -19 18 10 68 99 87 155 69 203 -5 12 -14 -6 -31 -60z"/>
<path d="M5923 3687 c-24 -11 -29 -22 -14 -31 8 -6 48 31 40 38 -2 2 -14 -1
-26 -7z"/>
<path d="M5930 3626 c0 -8 5 -18 10 -21 6 -3 10 3 10 14 0 12 -4 21 -10 21 -5
0 -10 -6 -10 -14z"/>
</g>
</svg>
