<svg xmlns="http://www.w3.org/2000/svg" xmlns:xlink="http://www.w3.org/1999/xlink" version="1.1" id="Lager_1" x="0px" y="0px" width="884.396px" height="285.5px" viewBox="0 0 285.5 285.5" xml:space="preserve">
<g>
<!--    <path fill="#BED600" d="M283.464,142.692c0,78.301-63.411,141.702-141.689,141.702C63.487,284.394,0,220.993,0,142.692    C0,64.391,63.487,0.929,141.775,0.929C220.054,0.929,283.464,64.391,283.464,142.692"/>-->
    <path fill="#FFFFFF" d="M131.447,68.713c-22.325,0-36.808,1.234-47.292,5.126c-17.618,6.863-29.785,21.247-29.785,40.15    c0,15.744,7.331,27.146,28.547,40.26c22.637,13.723,27.153,18.258,27.153,26.527c0,9.05-8.867,19.351-31.682,19.351    c-7.963,0-19.957-1.102-27.621-2.977l-3.657-0.922c-2.04,5.469-6.671,18.406-8.083,23.1l3.621,1.065    c6.894,2.199,23.255,3.916,34.977,3.916c38.995,0,62.261-23.559,62.261-48.229c0-15.159-6.881-26.68-30.142-41.194    c-11.668-7.177-17.614-11.831-21.225-15.434c-2.927-3.761-3.251-6.56-3.251-9.517c0-2.823,0.628-6.076,2.489-8.459    c2.013-2.946,5.705-4.823,10.702-6.372c5.136-1.704,14.652-1.749,29.473-1.749h13.8l9.854-24.641H131.447z M235.738,68.713    h-69.347l-9.855,24.64h22.986c15.467,0,18.442-0.333,22.326-0.333c-5.607,12.827-39.4,98.941-39.4,98.941h28.6    c0,0,42.784-107.197,47.318-118.436C239.622,71.017,238.998,68.713,235.738,68.713z"/>
</g>
</svg>
