<svg width="100" height="100" viewBox="0 0 100 100" fill="none" xmlns="http://www.w3.org/2000/svg">
    <g id="back" opacity="1">
        <path d="M50 98.5C45.5817 98.5 42 94.9183 42 90.5C42 86.3563 45.0785 84.2678 49.1731 78.2499C49.5743 77.6603 50.4484 77.6459 50.867 78.2233C54.9416 83.8445 58 86.3699 58 90.5C58 94.9183 54.4183 98.5 50 98.5Z" />
        <path d="M50 2C54.4183 2 58 5.58172 58 10C58 14.1437 54.9215 16.2322 50.8269 22.2501C50.4257 22.8397 49.5516 22.8541 49.133 22.2767C45.0584 16.6555 42 14.1301 42 10C42 5.58172 45.5817 2 50 2Z" />
    </g>
    <g id="front">
        <circle cx="50" cy="91" r="5" />
        <circle cx="50" cy="10" r="5" />
        <rect x="45" y="32" width="10" height="10" rx="4" />
        <rect x="45" y="59" width="10" height="10" rx="4" />
    </g>
</svg>
