<?xml version="1.0" standalone="no"?>
<!DOCTYPE svg PUBLIC "-//W3C//DTD SVG 20010904//EN"
 "http://www.w3.org/TR/2001/REC-SVG-20010904/DTD/svg10.dtd">
<svg version="1.0" xmlns="http://www.w3.org/2000/svg"
 width="1464.000000pt" height="3223.000000pt" viewBox="0 0 1464.000000 3223.000000"
 preserveAspectRatio="xMidYMid meet">

<g transform="translate(0.000000,3223.000000) scale(0.100000,-0.100000)"
fill="#000000" stroke="none">
<path d="M9161 31969 c-104 -10 -114 -14 -106 -38 8 -26 -27 -45 -69 -37 -17
3 -123 7 -236 10 -113 2 -254 9 -315 16 -102 10 -115 9 -180 -11 -38 -11 -90
-29 -115 -39 -25 -10 -61 -21 -80 -24 -19 -3 -48 -17 -64 -31 -21 -18 -35 -23
-56 -18 -19 3 -44 -3 -77 -20 -26 -14 -86 -44 -133 -68 -132 -65 -306 -188
-421 -297 -53 -50 -77 -84 -122 -170 -83 -160 -126 -307 -137 -467 -17 -239
-13 -370 16 -502 44 -201 47 -230 33 -315 -12 -75 -12 -79 9 -101 43 -45 103
-71 187 -79 44 -4 123 -12 175 -18 96 -11 272 -5 300 10 9 5 81 11 160 14 354
15 350 15 350 44 0 14 7 33 16 43 20 23 13 42 -23 66 -23 15 -47 18 -150 17
-68 -1 -128 -6 -135 -12 -7 -5 -38 -13 -68 -16 -77 -8 -207 -24 -256 -31 -39
-7 -41 -6 -50 26 -5 18 -15 34 -21 36 -12 4 -18 -7 -59 -104 -19 -49 -24 -51
-48 -24 -10 11 -30 21 -45 23 -24 3 -26 6 -23 42 6 71 -2 83 -55 89 -27 3 -66
9 -88 14 l-40 8 -3 204 -2 203 137 270 138 269 81 40 c45 21 87 39 93 39 6 0
37 14 69 30 33 17 66 30 74 30 8 0 18 3 22 7 4 4 30 15 59 24 29 9 77 26 107
38 72 28 158 28 230 0 128 -50 186 -69 206 -69 11 0 24 -4 30 -9 5 -5 32 -11
59 -14 28 -3 73 -11 100 -17 28 -6 109 -18 180 -25 187 -20 242 -32 325 -68
45 -20 95 -41 145 -62 40 -16 105 -71 105 -88 0 -5 25 -35 55 -65 30 -31 55
-60 55 -65 0 -5 17 -29 38 -52 20 -24 48 -59 62 -79 14 -21 42 -58 63 -84 36
-46 49 -94 27 -107 -5 -3 -10 -15 -10 -26 0 -10 -4 -27 -9 -37 -5 -9 -20 -50
-33 -90 l-23 -74 -40 6 c-159 24 -198 28 -265 28 -113 -1 -256 -18 -340 -40
-185 -49 -208 -63 -170 -114 45 -61 17 -63 -95 -7 -82 41 -115 45 -115 14 0
-8 4 -15 8 -15 23 0 46 -32 53 -73 24 -126 41 -198 59 -242 5 -11 11 -33 13
-50 3 -16 17 -64 31 -105 15 -41 31 -99 36 -130 17 -107 28 -144 46 -157 10
-7 14 -16 11 -20 -10 -9 -67 47 -67 66 0 9 -9 30 -20 48 -18 31 -21 32 -52 21
-18 -6 -37 -14 -43 -18 -5 -4 -23 -10 -40 -13 -16 -3 -64 -13 -105 -22 -41 -9
-97 -20 -125 -24 -74 -12 -93 -20 -104 -50 -6 -14 -16 -33 -22 -42 -25 -34 16
-73 52 -51 23 15 155 16 164 2 3 -5 31 -10 62 -10 47 0 133 -21 208 -51 52
-20 76 -19 125 6 50 25 50 26 50 75 0 27 -4 52 -10 55 -5 3 -10 19 -10 35 0
16 -4 31 -9 34 -14 9 -21 67 -31 241 -5 88 -11 171 -12 185 -2 20 2 26 22 28
14 2 36 14 50 27 33 31 64 39 92 24 13 -7 68 -59 124 -116 l101 -103 132 0
c73 0 140 4 150 10 10 5 38 39 62 75 l44 65 8 -38 c15 -68 30 -240 23 -275 -7
-37 -21 -46 -90 -56 -46 -7 -58 -27 -24 -40 35 -14 91 -77 90 -103 0 -13 -7
-43 -16 -68 -9 -25 -16 -55 -16 -67 0 -12 -4 -25 -10 -28 -5 -3 -10 -16 -10
-29 0 -12 -3 -26 -7 -30 -11 -10 -33 -79 -33 -103 0 -12 -4 -25 -10 -28 -5 -3
-10 -21 -10 -40 0 -19 -4 -36 -9 -39 -5 -3 -12 -32 -16 -63 -7 -56 -20 -85
-113 -255 -38 -69 -78 -118 -95 -118 -6 0 -34 -21 -63 -47 -118 -106 -145
-124 -291 -197 -84 -42 -160 -76 -169 -76 -25 0 -157 -31 -176 -41 -23 -12
-108 -12 -161 1 -38 9 -207 24 -402 37 -76 5 -117 17 -154 45 -31 24 -58 23
-66 -2 -9 -28 2 -40 34 -40 16 0 45 -11 65 -25 21 -14 54 -34 74 -45 72 -39
127 -73 132 -80 9 -13 435 -220 452 -220 9 0 20 -4 23 -10 3 -5 16 -10 28 -10
52 -1 172 -50 209 -87 21 -20 38 -42 38 -48 0 -6 13 -24 29 -39 35 -34 63 -31
113 12 18 15 58 41 88 57 30 15 57 32 60 36 3 4 34 21 70 38 61 30 66 31 96
16 18 -8 35 -22 38 -31 10 -25 7 -102 -4 -109 -12 -8 -13 -207 -1 -220 5 -6
12 -29 15 -52 3 -24 9 -61 12 -84 5 -31 2 -45 -13 -62 -10 -12 -27 -38 -37
-57 -11 -19 -23 -37 -26 -40 -4 -3 -17 -23 -29 -45 -12 -22 -29 -53 -39 -70
-10 -16 -29 -64 -42 -105 -13 -41 -27 -79 -32 -85 -4 -5 -8 -19 -8 -31 0 -13
-4 -26 -10 -29 -5 -3 -10 -14 -10 -23 0 -9 -32 -85 -72 -170 -68 -146 -74
-155 -126 -193 -31 -21 -61 -39 -67 -39 -7 0 -18 -7 -25 -15 -20 -24 -171
-103 -231 -121 -29 -8 -72 -21 -94 -27 -52 -15 -229 -15 -280 0 -22 6 -69 17
-105 24 -56 11 -129 34 -294 95 -84 32 -134 65 -289 191 -64 53 -139 145 -239
297 l-38 56 0 348 c0 200 -4 353 -10 362 -14 23 -28 1 -33 -55 -5 -44 -15 -93
-46 -225 -5 -19 -17 -71 -26 -115 -9 -44 -21 -98 -27 -120 -5 -22 -12 -52 -15
-68 -3 -15 -9 -30 -14 -33 -5 -3 -9 -14 -9 -24 0 -11 -6 -34 -14 -52 -28 -66
-38 -136 -42 -281 -2 -81 -8 -156 -14 -166 -5 -11 -10 -42 -10 -70 0 -28 -4
-70 -10 -93 -9 -39 -14 -86 -41 -348 -16 -161 -57 -432 -79 -520 -5 -19 -13
-60 -19 -90 -22 -120 -33 -177 -41 -210 -25 -108 -30 -132 -30 -152 0 -12 -4
-35 -9 -52 -5 -17 -19 -71 -30 -121 -11 -49 -27 -121 -36 -160 -29 -128 -100
-355 -164 -525 -35 -92 -86 -237 -146 -420 -20 -63 -51 -144 -67 -180 -16 -36
-40 -94 -54 -130 -14 -36 -34 -85 -44 -110 -11 -25 -40 -99 -65 -165 -68 -177
-104 -256 -272 -594 -113 -227 -179 -347 -257 -465 -117 -176 -134 -198 -150
-193 -29 11 -91 -42 -123 -104 -44 -88 -76 -145 -88 -159 -7 -8 -27 -42 -45
-75 -31 -57 -57 -98 -139 -225 -20 -30 -43 -68 -52 -85 -9 -16 -36 -60 -60
-96 -24 -37 -62 -97 -84 -134 -22 -37 -64 -102 -92 -145 -29 -44 -53 -81 -53
-84 0 -23 -197 -281 -259 -340 -26 -25 -31 -27 -37 -12 -3 9 -2 29 4 44 5 15
20 61 33 102 12 41 29 84 36 95 7 11 13 27 13 35 0 16 -57 78 -63 69 -18 -22
-137 -201 -138 -207 0 -4 -16 -27 -35 -52 -18 -25 -42 -56 -51 -70 -10 -14
-38 -51 -63 -82 -64 -80 -80 -103 -251 -353 -15 -22 -39 -51 -54 -65 -32 -30
-68 -97 -56 -104 5 -3 25 6 45 19 21 14 54 34 74 46 20 11 59 36 87 55 27 18
60 34 73 34 21 0 23 -3 17 -32 -4 -18 -19 -55 -33 -83 -26 -50 -36 -90 -52
-200 -13 -97 -28 -161 -46 -202 -8 -21 -24 -63 -34 -93 -50 -145 -61 -171
-109 -242 -78 -116 -130 -250 -155 -393 -4 -22 -12 -54 -18 -72 -10 -28 -8
-45 16 -119 16 -48 37 -95 47 -105 26 -26 24 -49 -4 -49 -29 0 -161 -33 -242
-61 -64 -22 -110 -41 -435 -185 -129 -57 -378 -190 -485 -259 -240 -155 -273
-180 -283 -218 -11 -38 -4 -49 49 -76 59 -31 77 -28 85 15 8 42 31 54 142 80
101 23 103 24 97 43 -15 48 207 260 371 353 163 93 239 128 279 128 13 0 26 4
29 9 3 5 20 11 38 14 18 3 51 10 73 16 22 5 72 17 110 26 39 9 84 20 100 25
17 5 62 12 101 16 65 6 82 3 190 -31 157 -50 173 -59 283 -159 52 -47 97 -86
100 -86 7 0 149 -143 260 -261 39 -41 71 -82 71 -89 0 -7 6 -21 14 -29 7 -9
25 -36 38 -61 45 -84 63 -110 74 -110 6 0 43 -16 82 -35 85 -41 92 -62 39
-113 -50 -48 -64 -46 -280 34 -54 20 -114 52 -122 64 -10 16 -25 12 -25 -8 0
-10 24 -40 53 -68 93 -89 96 -90 245 -98 l133 -7 45 44 c52 52 57 85 19 141
-13 20 -39 62 -56 94 -17 31 -37 64 -44 72 -7 8 -21 33 -31 55 -28 61 -269
296 -406 396 -49 35 -37 50 35 43 120 -12 218 -73 428 -266 123 -114 226 -185
319 -221 125 -48 233 -85 270 -92 43 -9 66 -28 87 -74 9 -20 22 -43 29 -51 6
-8 24 -37 38 -65 30 -58 96 -154 177 -258 62 -80 153 -162 214 -196 22 -12 52
-29 67 -39 197 -125 677 -365 788 -394 19 -5 51 -13 70 -18 19 -4 71 -17 115
-28 226 -57 547 -50 884 17 79 16 112 14 198 -14 80 -27 92 -31 156 -59 21 -9
40 -16 42 -16 2 0 16 25 31 55 34 68 46 78 114 94 30 7 69 17 85 22 17 5 100
29 185 54 223 66 339 105 385 128 72 36 278 257 416 448 41 57 95 100 115 92
8 -3 14 -9 14 -14 0 -5 18 -20 39 -33 38 -24 39 -27 45 -93 11 -131 11 -156 1
-160 -14 -4 -35 67 -35 117 0 23 -7 55 -16 71 -13 26 -18 28 -30 18 -12 -10
-14 -23 -9 -53 3 -23 9 -79 11 -126 3 -47 10 -89 15 -95 5 -5 9 -103 9 -218
l0 -209 -37 -34 c-20 -19 -42 -34 -49 -34 -6 0 -23 -9 -38 -21 -15 -12 -46
-31 -69 -43 -52 -28 -67 -56 -67 -126 l1 -55 20 27 c11 15 41 41 66 58 l46 31
23 -22 c13 -12 24 -32 24 -43 0 -22 23 -87 57 -166 11 -25 24 -61 27 -80 4
-19 16 -57 28 -85 11 -27 24 -59 28 -70 4 -11 20 -49 35 -83 15 -35 31 -76 35
-90 5 -15 22 -63 38 -107 59 -159 70 -192 97 -310 15 -66 31 -128 36 -137 5
-10 9 -26 9 -36 0 -10 4 -22 9 -27 5 -6 21 -46 36 -90 15 -44 32 -84 36 -90 5
-5 9 -18 9 -30 0 -12 4 -25 8 -30 9 -11 42 -117 113 -361 5 -17 9 -40 9 -52 0
-11 4 -23 9 -26 5 -3 11 -20 14 -38 3 -18 11 -55 17 -83 11 -48 20 -109 39
-260 5 -38 17 -115 26 -170 9 -55 18 -116 21 -135 3 -19 9 -44 14 -55 5 -11
11 -49 14 -85 3 -36 10 -99 15 -140 20 -142 30 -225 46 -370 9 -80 20 -179 26
-220 20 -145 30 -380 38 -865 5 -269 13 -515 19 -545 5 -30 15 -81 20 -112 6
-32 14 -173 18 -315 7 -270 4 -296 -39 -395 -8 -18 -20 -49 -27 -68 -31 -87
-65 -167 -80 -185 -10 -11 -20 -27 -24 -35 -9 -20 -62 -106 -105 -169 -48 -72
-255 -258 -401 -362 -30 -21 -71 -51 -91 -65 -37 -26 -71 -47 -99 -60 -8 -4
-29 -19 -46 -33 -18 -14 -61 -47 -95 -72 -35 -26 -124 -102 -198 -170 -170
-157 -203 -181 -386 -274 -156 -80 -225 -133 -289 -223 -43 -60 -333 -338
-516 -493 -41 -35 -106 -94 -145 -132 -39 -37 -75 -67 -80 -67 -5 0 -41 -30
-81 -67 -40 -38 -102 -92 -136 -121 -35 -29 -103 -89 -153 -134 -49 -44 -120
-100 -156 -125 -37 -24 -72 -50 -79 -58 -7 -8 -18 -15 -25 -15 -7 0 -18 -7
-26 -16 -7 -8 -38 -32 -68 -51 -31 -20 -86 -63 -123 -95 -36 -32 -69 -58 -73
-58 -7 0 -77 -59 -177 -148 -33 -29 -90 -88 -127 -130 -102 -115 -171 -176
-241 -214 -34 -18 -88 -47 -119 -63 -69 -37 -141 -92 -141 -109 0 -7 -18 -30
-40 -52 -46 -45 -84 -110 -70 -119 6 -4 27 7 47 24 40 33 63 39 63 18 0 -42
-146 -208 -232 -264 -23 -15 -80 -59 -125 -98 -103 -89 -161 -131 -222 -159
-58 -27 -126 -79 -143 -111 -7 -13 -37 -58 -65 -102 -29 -43 -59 -87 -65 -98
-17 -26 -74 -80 -135 -128 -135 -107 -173 -141 -211 -190 -23 -30 -42 -59 -42
-65 0 -6 -16 -23 -35 -38 -60 -45 -49 -60 50 -68 67 -5 92 -3 116 9 26 14 30
14 35 1 7 -17 -23 -58 -134 -186 -41 -47 -85 -101 -97 -120 -33 -51 -58 -71
-117 -91 -51 -17 -98 -18 -224 -4 -46 6 -59 13 -137 83 -153 136 -183 185
-228 367 -17 73 -21 109 -17 202 3 84 1 113 -8 113 -13 0 -18 -27 -38 -220
l-15 -135 40 -114 c22 -63 45 -122 51 -130 45 -58 186 -205 209 -217 17 -8 29
-23 29 -34 0 -17 -7 -20 -44 -20 -25 0 -48 4 -51 10 -3 5 -53 33 -111 62 -70
35 -110 62 -119 78 -7 14 -27 38 -44 54 -17 17 -31 35 -31 41 0 6 -12 22 -26
36 -30 28 -74 91 -110 158 -14 25 -38 71 -55 101 -17 30 -42 91 -56 135 -14
44 -29 89 -33 100 -31 73 -50 149 -50 198 0 31 -4 59 -10 62 -5 3 -10 34 -10
68 0 34 -5 93 -10 130 -8 55 -7 73 5 97 21 40 19 60 -5 60 -39 0 -52 -49 -51
-207 1 -132 0 -144 -16 -141 -10 2 -23 14 -30 28 -7 14 -19 30 -28 36 -21 16
-55 115 -55 162 0 43 52 180 109 287 21 38 41 82 45 97 6 26 5 26 -67 39 -39
7 -97 13 -127 13 -88 1 -277 -31 -380 -64 -52 -17 -126 -35 -165 -41 -38 -7
-76 -13 -83 -15 -23 -7 -6 -554 23 -715 3 -19 10 -77 16 -129 16 -142 26 -220
38 -270 33 -148 66 -275 90 -350 10 -30 24 -75 31 -100 12 -41 24 -78 82 -240
11 -30 28 -73 37 -95 10 -22 26 -71 35 -110 31 -127 37 -150 47 -181 5 -17 9
-40 9 -52 0 -11 4 -24 10 -27 5 -3 10 -37 10 -74 0 -37 4 -71 9 -77 5 -5 12
-43 15 -84 3 -41 10 -104 15 -140 5 -36 15 -110 21 -165 6 -55 15 -127 20
-160 6 -33 10 -80 10 -104 0 -24 5 -62 11 -85 6 -22 14 -57 19 -76 44 -188
128 -468 166 -556 63 -148 84 -195 145 -322 38 -79 69 -154 69 -167 0 -45 19
-74 72 -109 48 -31 86 -45 238 -88 33 -10 49 -21 60 -43 16 -31 16 -32 12
-375 -1 -96 3 -213 9 -260 5 -47 12 -110 15 -140 11 -107 69 -236 133 -294 12
-11 21 -30 21 -43 0 -16 6 -23 19 -23 10 0 29 -8 42 -19 32 -25 81 -49 138
-69 56 -19 464 -26 631 -10 58 5 276 9 485 9 370 -1 561 9 667 37 65 17 152
79 241 171 73 76 157 186 157 206 0 3 8 24 19 48 41 95 60 226 71 507 5 118
11 224 13 235 3 11 11 47 17 80 23 113 53 186 102 251 21 28 135 153 319 349
181 192 229 271 237 391 5 85 -5 131 -57 269 -21 55 -46 143 -56 195 -9 52
-20 111 -25 130 -5 19 -16 82 -25 140 -59 369 -89 447 -214 561 -67 61 -161
187 -161 218 0 4 -7 22 -15 38 -31 62 -55 185 -55 280 0 83 7 141 51 411 6 37
14 92 19 122 8 65 36 249 50 336 6 34 10 249 10 480 0 460 3 494 62 606 35 66
110 140 397 393 112 99 209 185 215 190 92 86 305 261 476 391 58 44 155 118
215 164 113 87 192 147 406 309 68 52 126 97 129 100 3 3 28 24 55 46 89 71
126 105 435 412 349 346 381 372 483 412 113 44 160 78 337 244 88 83 154 129
337 235 59 34 139 85 176 114 84 62 245 220 316 308 29 36 59 73 67 83 62 76
153 248 179 337 8 30 20 69 24 85 5 17 14 62 21 100 7 39 16 92 21 118 14 76
11 454 -3 480 -10 17 -14 179 -18 678 -3 445 -8 660 -16 670 -30 39 -38 105
-64 489 -27 423 -59 659 -135 1005 -3 17 -10 53 -15 80 -5 28 -19 93 -30 145
-11 52 -25 120 -31 150 -6 30 -17 80 -26 110 -8 30 -18 69 -23 85 -8 31 -65
201 -98 293 -10 28 -22 55 -25 59 -4 3 -7 16 -7 28 0 12 -3 25 -7 28 -6 7 -28
65 -64 172 -11 33 -24 69 -29 80 -15 36 -73 197 -130 360 -17 50 -35 100 -40
112 -5 12 -12 48 -16 81 -9 83 11 121 87 167 89 54 179 147 236 243 l25 42 2
323 c1 219 6 343 15 387 34 170 84 290 148 355 22 22 132 106 244 185 112 80
231 171 265 203 72 67 132 155 178 261 79 180 146 264 458 576 249 248 318
341 398 540 12 30 31 75 42 99 11 25 72 166 135 315 63 149 123 289 133 311
10 22 30 69 45 105 15 36 35 83 45 105 50 111 121 310 141 395 56 244 62 300
56 510 -7 291 -43 427 -151 579 -62 88 -82 158 -65 231 16 67 15 451 -1 586
-6 50 -12 199 -13 330 -1 233 1 256 35 388 5 22 10 81 10 133 0 135 -44 264
-189 550 -163 324 -183 372 -183 442 0 63 34 157 127 351 117 242 153 382 123
484 -66 231 -173 424 -302 544 -123 114 -177 173 -206 221 -62 106 -123 183
-236 297 -183 183 -229 215 -491 340 -64 31 -213 118 -282 165 -23 16 -44 29
-47 29 -11 0 -217 147 -306 219 -182 146 -529 508 -687 716 -93 123 -118 176
-143 303 -15 80 -13 355 5 437 8 39 17 84 20 100 4 17 10 39 15 50 38 94 80
213 80 227 0 9 5 20 10 23 6 3 10 26 10 51 0 83 45 147 201 289 102 93 184
231 232 395 37 125 39 140 22 195 -13 45 -13 58 1 127 19 94 10 132 -45 206
-21 29 -43 65 -49 80 -22 58 -35 172 -28 239 6 62 13 206 32 681 8 200 -3 282
-63 462 -77 229 -162 335 -401 498 -66 45 -123 82 -126 82 -3 0 -29 15 -58 33
-144 90 -274 138 -398 143 -95 5 -175 19 -197 36 -6 5 -71 13 -145 18 -148 10
-141 10 -257 -1z m250 -1995 c29 -15 30 -16 14 -34 -12 -14 -37 -19 -103 -24
-48 -3 -112 -8 -142 -12 -48 -5 -62 -2 -112 25 -32 16 -54 32 -49 35 5 4 42 7
82 7 40 1 83 5 94 9 37 16 183 11 216 -6z m133 -2545 c14 -11 26 -28 26 -36 0
-48 186 -278 361 -449 63 -61 141 -143 174 -182 35 -43 90 -93 133 -122 41
-28 76 -50 78 -50 2 0 27 -16 54 -35 27 -19 52 -35 55 -35 3 0 28 -16 55 -35
27 -19 52 -35 55 -35 2 0 39 -26 82 -58 126 -94 243 -168 354 -225 171 -87
266 -160 476 -362 157 -152 193 -195 268 -325 33 -57 76 -111 131 -165 98 -97
204 -219 226 -260 96 -186 108 -230 108 -397 0 -129 -3 -154 -21 -195 -12 -27
-37 -84 -57 -128 -72 -164 -69 -159 -168 -309 -10 -16 -27 -41 -36 -55 -10
-14 -22 -36 -28 -49 -14 -32 -80 -120 -126 -167 -22 -22 -50 -56 -63 -75 -40
-58 -125 -140 -145 -140 -11 0 -30 -10 -42 -21 -13 -12 -34 -27 -46 -33 -20
-10 -23 -20 -26 -74 -2 -51 0 -63 14 -69 11 -4 22 1 30 13 36 53 75 103 134
170 36 41 89 102 118 136 29 35 70 83 91 108 21 25 44 55 50 68 19 37 52 25
81 -30 14 -25 40 -64 58 -87 17 -22 32 -43 32 -46 0 -4 11 -21 24 -38 31 -41
49 -87 70 -173 32 -136 60 -200 152 -355 47 -79 45 -113 -10 -197 -24 -37 -58
-84 -75 -106 -17 -21 -31 -44 -31 -51 0 -6 -11 -22 -25 -35 -14 -13 -25 -32
-25 -42 0 -17 3 -17 53 4 28 11 68 21 87 22 30 1 36 -3 38 -23 4 -25 1 -36
-38 -160 -23 -74 -26 -158 -6 -186 14 -21 15 -27 43 -160 20 -96 22 -329 4
-425 -7 -36 -24 -96 -38 -133 -16 -44 -23 -79 -20 -100 10 -63 26 -109 49
-145 13 -20 32 -62 42 -92 18 -51 82 -201 126 -295 17 -35 19 -66 21 -235 1
-211 -5 -288 -26 -335 -7 -16 -17 -43 -20 -60 -11 -47 -47 -149 -55 -155 -9
-6 -27 -64 -35 -115 -9 -56 -33 -131 -56 -177 -5 -10 -9 -26 -9 -36 0 -38 -98
-286 -185 -467 -18 -38 -44 -101 -56 -140 -12 -38 -31 -82 -41 -97 -10 -14
-18 -30 -18 -34 0 -14 -71 -201 -126 -332 -8 -18 -14 -39 -14 -46 0 -15 -48
-94 -95 -156 -73 -99 -93 -122 -133 -155 -48 -42 -44 -48 -66 90 -9 55 -21
114 -27 132 -20 63 -102 194 -158 250 -62 64 -113 87 -256 118 -44 9 -96 23
-115 31 -37 15 -152 30 -335 43 l-110 9 -53 -52 c-28 -28 -64 -68 -78 -88 -18
-25 -34 -38 -50 -38 -30 0 -34 7 -41 85 -6 64 -7 66 -51 96 -28 19 -48 27 -54
21 -6 -6 -7 -56 -4 -123 11 -187 11 -203 2 -230 -13 -45 17 -43 76 4 l53 42
150 0 c95 0 171 -5 208 -14 47 -12 62 -12 81 -2 20 11 31 10 74 -10 48 -22 50
-24 72 -97 13 -41 34 -87 47 -103 35 -41 27 -64 -22 -64 -39 0 -40 1 -77 70
-41 74 -75 112 -90 97 -13 -13 35 -126 85 -197 15 -22 35 -51 44 -65 9 -14 32
-44 51 -68 29 -37 36 -55 44 -120 5 -42 14 -91 19 -108 15 -50 10 -130 -10
-176 -11 -24 -26 -61 -34 -83 -8 -22 -21 -56 -28 -75 -7 -19 -33 -58 -56 -87
-24 -29 -43 -56 -43 -60 0 -19 -207 -243 -224 -243 -7 0 -45 -34 -86 -75 -41
-41 -79 -75 -84 -75 -8 0 -43 -28 -124 -100 -45 -40 -107 -62 -125 -44 -10 10
10 41 69 108 30 33 87 98 127 144 39 45 94 107 120 136 51 57 58 89 22 94 -13
2 -26 -8 -37 -28 -9 -16 -23 -30 -31 -30 -7 0 -26 -13 -42 -30 -16 -16 -32
-30 -37 -30 -17 0 -209 -160 -363 -304 -74 -69 -74 -69 -107 -55 -51 20 -78
40 -78 56 0 33 56 128 145 243 17 21 55 73 85 115 30 42 67 92 83 110 15 18
27 35 27 38 0 10 59 93 75 107 8 7 15 18 15 25 0 6 9 20 20 30 11 10 20 24 20
32 0 7 4 13 8 13 10 0 42 65 42 86 0 22 -28 29 -48 11 -9 -8 -39 -26 -66 -40
-27 -15 -66 -40 -85 -56 -20 -17 -51 -42 -68 -57 -34 -27 -43 -54 -19 -54 8 0
28 12 45 26 46 38 69 13 34 -36 -10 -13 -57 -65 -104 -114 -47 -50 -115 -129
-152 -176 -126 -160 -195 -240 -209 -240 -5 0 -22 -10 -38 -21 -26 -20 -32
-21 -61 -8 -18 7 -48 26 -66 42 -52 46 -47 87 28 222 34 61 97 163 140 228 43
64 79 121 79 126 0 5 7 14 15 21 8 7 15 23 15 37 0 31 -29 42 -46 17 -21 -32
-77 -103 -116 -148 -21 -24 -38 -47 -38 -53 0 -12 -83 -93 -97 -93 -6 0 -17
-7 -24 -16 -8 -9 -30 -27 -49 -40 -19 -13 -55 -40 -80 -59 -25 -19 -54 -39
-65 -45 -11 -5 -45 -26 -75 -47 -51 -35 -55 -41 -58 -81 -5 -67 -26 -47 -30
28 -2 49 5 93 29 180 33 120 71 227 90 259 19 30 4 54 -29 46 -26 -6 -63 -45
-107 -109 -20 -30 -68 -68 -135 -107 -19 -11 -60 -35 -90 -54 -30 -19 -62 -38
-70 -42 -8 -4 -30 -17 -49 -30 -19 -13 -42 -23 -52 -23 -43 0 -66 92 -31 122
9 9 40 27 67 41 61 30 76 48 100 112 55 151 76 180 288 388 111 109 218 207
238 217 19 10 41 26 48 34 8 9 19 16 26 16 8 0 27 11 43 25 26 22 30 33 37
100 4 41 11 77 16 81 14 8 11 68 -7 110 -9 22 -31 71 -49 109 -18 39 -43 99
-56 136 -22 64 -22 68 -11 250 12 197 24 301 42 389 24 119 31 157 39 200 5
25 23 119 40 210 17 91 31 181 31 200 0 19 5 51 10 70 6 19 13 107 16 195 2
88 7 177 10 197 5 28 1 46 -15 71 -18 29 -19 38 -9 65 10 26 9 34 -5 49 -11
13 -19 52 -27 133 -6 63 -15 153 -21 200 -20 177 -31 364 -38 640 -4 157 -13
337 -20 400 -37 320 -8 1208 60 1905 5 50 13 146 19 215 5 69 17 195 26 280
22 216 32 472 38 990 3 245 8 466 11 492 4 34 0 66 -16 110 -11 35 -25 78 -30
96 -5 17 -14 49 -19 70 -24 84 -54 226 -70 327 -4 28 -16 91 -25 140 -14 74
-16 122 -11 275 8 252 14 300 36 300 10 0 29 -9 44 -21z m630 -10664 c-1 -55
-7 -125 -13 -155 -23 -109 -42 -286 -36 -335 15 -126 16 -201 4 -240 -12 -39
-50 -137 -72 -182 -14 -31 -80 -75 -100 -67 -29 11 -87 118 -87 160 0 39 23
187 42 279 6 28 13 178 15 335 2 157 5 291 8 298 3 9 34 12 122 10 l118 -3 -1
-100z m-3914 -10643 c0 -21 -5 -43 -11 -49 -12 -12 -7 -80 12 -158 17 -72 22
-286 9 -364 -7 -36 -16 -88 -21 -116 -13 -79 -37 -200 -59 -300 -6 -27 -16
-72 -22 -100 -5 -27 -14 -115 -18 -195 -8 -158 -12 -184 -41 -247 -10 -24 -19
-54 -19 -68 0 -14 -5 -33 -11 -43 -9 -14 -9 -33 -1 -73 21 -105 40 -174 56
-213 12 -28 16 -70 16 -162 0 -121 11 -174 35 -174 6 0 26 11 45 25 31 23 35
24 52 8 12 -11 18 -30 18 -59 0 -38 -3 -44 -26 -50 -14 -4 -35 -2 -47 3 -12 5
-155 11 -317 12 -162 1 -296 4 -299 7 -3 2 -6 123 -6 267 -2 258 -5 293 -38
345 -22 33 -29 8 -23 -80 19 -302 19 -311 -3 -351 -12 -21 -22 -45 -23 -55 -1
-9 -5 44 -9 118 -8 158 -33 334 -53 370 -8 14 -24 59 -36 100 -12 41 -25 80
-30 85 -4 6 -10 32 -14 59 -3 27 -10 54 -15 60 -5 6 -16 38 -25 70 -8 33 -22
64 -31 68 -22 13 -19 26 14 63 15 18 31 50 35 70 4 21 18 55 32 76 13 21 24
44 24 52 0 7 22 44 49 82 27 39 71 101 98 139 26 38 64 87 83 108 19 21 51 59
70 84 115 146 200 250 285 345 44 49 90 104 103 122 43 62 133 157 148 157 10
0 14 -12 14 -38z m-952 -1541 c20 -10 44 -27 53 -37 26 -30 81 -193 91 -269
16 -118 20 -287 10 -340 -6 -27 -15 -79 -21 -115 -6 -36 -20 -96 -32 -133 -24
-76 -35 -81 -99 -45 -38 22 -39 22 -59 4 -12 -11 -21 -25 -21 -33 0 -8 -7 -13
-17 -11 -13 2 -20 17 -24 53 -8 63 3 77 55 73 45 -3 41 -11 61 112 26 163 27
177 6 302 -26 155 -28 192 -11 250 11 38 11 49 1 62 -40 48 -67 146 -41 146 6
0 27 -9 48 -19z m-50 -147 l24 -23 -39 -41 c-23 -24 -51 -42 -70 -46 -39 -8
-42 5 -12 47 29 41 19 61 -13 26 -51 -54 -110 -206 -204 -522 -15 -49 -36
-110 -46 -135 -11 -25 -29 -79 -39 -120 -37 -143 -62 -205 -84 -205 -13 0 -19
5 -16 15 2 8 7 42 11 75 5 33 14 76 20 95 6 19 15 78 20 130 6 52 18 120 29
150 10 30 24 75 31 100 26 95 59 178 84 216 15 21 40 59 56 84 16 25 37 54 46
65 9 11 29 41 45 67 17 29 37 48 51 50 39 7 82 -4 106 -28z m-420 -101 c2 -8
-6 -13 -22 -13 -17 0 -26 5 -26 16 0 19 41 16 48 -3z m-1178 -118 c15 -14 145
-84 291 -156 351 -174 505 -238 574 -239 44 0 63 -15 49 -37 -15 -24 -71 -28
-131 -9 -156 48 -453 184 -594 271 -9 5 -57 32 -105 59 -127 71 -144 84 -144
112 0 32 26 31 60 -1z m2823 -398 c31 -86 67 -205 67 -221 0 -19 -2 -19 -34
-5 -31 14 -52 74 -61 174 -4 39 -11 77 -16 86 -4 9 -5 19 -2 23 11 11 30 -13
46 -57z m-56 -133 c3 -8 1 -20 -6 -27 -6 -6 -11 -28 -11 -49 0 -58 -34 -88
-100 -88 -58 0 -56 -2 -64 97 l-5 72 62 4 c34 2 75 4 90 5 17 1 30 -4 34 -14z
m-676 -119 c36 -19 69 -70 69 -107 0 -28 1 -28 63 -28 34 0 96 -7 137 -16 41
-8 101 -18 132 -21 38 -4 59 -10 63 -21 10 -27 -11 -36 -53 -24 -25 8 -77 10
-150 5 -70 -4 -116 -2 -124 4 -19 15 -61 23 -73 15 -33 -24 -47 -98 -19 -109
9 -3 33 4 55 16 51 29 113 26 117 -5 6 -39 -25 -57 -86 -50 -89 10 -98 -12
-61 -144 25 -91 33 -124 54 -214 9 -38 24 -98 32 -135 9 -36 20 -129 24 -206
4 -77 12 -162 17 -190 30 -144 42 -213 54 -315 17 -145 16 -165 -7 -165 -22 0
-27 20 -45 162 -4 40 -11 77 -14 82 -4 6 -9 57 -11 113 -7 169 -47 383 -104
553 -56 170 -61 179 -93 198 -40 23 -44 42 -14 78 28 32 35 86 15 106 -18 18
-38 4 -61 -41 -11 -22 -29 -52 -39 -65 -11 -13 -19 -30 -19 -37 0 -8 24 -49
53 -92 104 -150 124 -192 157 -322 24 -91 25 -201 4 -295 -9 -38 -19 -84 -22
-102 -5 -24 -21 -42 -67 -74 -91 -64 -166 -92 -109 -41 52 47 116 141 126 185
37 170 37 248 -2 368 -30 92 -64 159 -80 159 -4 0 -11 -39 -15 -87 -7 -100
-26 -154 -71 -199 -18 -17 -37 -40 -43 -52 -7 -13 -24 -22 -53 -25 -24 -3 -54
-7 -68 -9 -21 -3 -25 1 -22 22 7 67 -6 211 -21 226 -3 4 -13 4 -21 1 -20 -8
-32 -162 -17 -221 6 -25 11 -58 11 -74 0 -16 17 -64 39 -108 21 -43 42 -89 45
-101 10 -31 82 -93 117 -100 16 -3 32 -9 34 -13 9 -15 -59 -29 -100 -21 -22 4
-54 4 -70 -1 -17 -4 -58 -5 -93 -1 -69 6 -131 -4 -307 -52 -121 -33 -177 -45
-186 -39 -11 6 -12 44 -1 61 8 13 77 38 133 47 41 7 84 47 76 70 -3 8 -24 20
-47 26 -37 10 -41 14 -38 38 3 27 4 27 73 25 39 -1 95 -3 125 -5 44 -2 66 3
113 25 59 30 71 49 38 67 -29 15 -64 12 -114 -9 -49 -21 -57 -17 -57 30 0 12
-7 19 -19 19 -10 0 -37 17 -60 38 -36 33 -42 44 -39 73 3 32 5 34 36 31 18 -2
71 -21 118 -43 113 -52 141 -38 132 67 -2 32 -7 40 -27 42 -13 2 -28 -1 -34
-7 -18 -18 -23 -13 -19 22 4 38 -4 47 -71 72 -46 17 -48 19 -45 54 3 34 4 36
38 33 19 -1 59 -12 88 -24 36 -14 56 -18 63 -11 6 6 15 46 20 89 6 44 19 118
30 166 11 48 18 92 14 98 -3 5 5 33 19 61 29 57 31 71 14 99 -10 15 -10 22 0
32 12 12 17 48 6 48 -15 0 -83 -69 -127 -129 -53 -72 -63 -92 -133 -262 -58
-143 -125 -276 -168 -337 -19 -26 -66 -112 -106 -191 -88 -178 -149 -261 -134
-182 8 39 -16 46 -66 21 -92 -47 -64 -3 41 66 52 34 74 57 104 106 33 56 115
248 115 271 0 4 11 32 24 60 13 29 43 99 67 157 45 109 95 210 168 343 39 71
48 81 95 101 58 26 91 58 83 81 -5 12 -12 13 -32 5 -34 -13 -182 -13 -190 0
-15 25 133 71 194 61 23 -4 61 9 61 20 0 12 25 39 37 39 5 0 32 16 60 35 57
39 89 43 134 19 27 -13 33 -14 47 -1 14 12 32 22 50 26 2 1 16 -6 33 -14z
m-1275 -180 c-11 -8 -29 -15 -40 -15 -22 0 -175 -32 -238 -50 -21 -5 -53 -14
-70 -19 -18 -4 -116 -36 -216 -70 -101 -35 -187 -60 -190 -56 -4 3 0 18 8 32
15 25 51 39 260 104 168 53 176 54 410 78 41 5 80 9 85 9 6 1 1 -5 -9 -13z
m1661 -647 c105 -53 245 -160 251 -191 5 -27 -21 -20 -54 14 -16 17 -47 43
-69 57 -37 25 -180 94 -247 121 -35 13 -39 51 -6 51 13 0 69 -23 125 -52z
m-71 -1628 c-3 -30 -15 -80 -26 -110 -11 -30 -20 -64 -20 -75 0 -12 -4 -25 -9
-30 -4 -6 -14 -31 -20 -56 -10 -35 -28 -61 -72 -105 -32 -32 -59 -63 -59 -69
0 -6 -30 -41 -67 -77 -68 -67 -157 -118 -206 -118 -13 0 -27 -4 -32 -8 -6 -5
-37 -17 -70 -26 -33 -10 -70 -22 -83 -27 -36 -14 -108 -11 -122 6 -17 21 -3
35 35 35 36 0 99 31 250 123 75 45 104 71 173 153 122 144 189 244 237 353 23
53 48 109 55 124 l14 28 14 -33 c9 -22 12 -51 8 -88z"/>
<path d="M10003 25894 c4 -129 10 -185 24 -223 19 -55 31 -62 50 -31 7 11 27
23 45 28 31 8 33 11 36 55 4 68 -50 231 -92 277 -74 80 -70 86 -63 -106z"/>
<path d="M11545 22868 c-42 -18 -83 -22 -269 -29 -126 -5 -224 -13 -230 -19
-7 -7 13 -10 65 -11 40 0 90 -6 109 -13 32 -12 35 -16 33 -52 0 -21 -10 -84
-21 -139 -11 -55 -28 -163 -37 -240 -9 -77 -21 -160 -25 -185 -5 -25 -7 -47
-4 -49 13 -13 29 27 36 92 8 74 20 156 36 239 8 44 27 75 86 141 14 16 26 32
28 35 10 22 122 109 178 138 65 34 89 51 124 92 l19 22 -39 -1 c-21 0 -61 -10
-89 -21z m-119 -53 c-11 -8 -29 -15 -40 -15 -36 0 7 25 49 29 6 0 1 -6 -9 -14z"/>
<path d="M10981 20957 c-5 -12 -7 -26 -4 -30 2 -4 -9 -23 -26 -43 -17 -19 -31
-40 -31 -47 0 -7 -11 -48 -24 -92 -31 -100 -78 -289 -83 -335 l-5 -35 33 33
c29 28 34 39 35 85 2 87 19 152 52 203 18 26 32 55 32 64 0 17 20 47 60 89 35
36 70 82 70 91 0 9 -23 19 -68 30 -29 7 -34 5 -41 -13z"/>
<path d="M9816 20701 c-11 -18 -86 -413 -86 -454 0 -26 20 -10 36 29 10 23 19
32 29 28 13 -5 15 7 15 77 0 46 5 138 10 204 9 117 8 136 -4 116z"/>
<path d="M10665 19194 c-22 -8 -46 -21 -54 -29 -12 -11 -5 -11 35 2 27 9 73
18 102 21 28 2 50 8 46 13 -8 14 -84 10 -129 -7z"/>
<path d="M6158 5905 c-3 -5 -9 -26 -12 -45 -9 -42 -34 -123 -53 -167 -7 -17
-13 -36 -13 -42 0 -6 -14 -41 -30 -78 -33 -73 -32 -91 4 -52 36 39 52 76 89
214 3 11 12 38 20 60 14 38 10 134 -5 110z"/>
<path d="M5578 3503 c-31 -34 -38 -75 -38 -218 0 -192 20 -245 56 -147 9 26
28 71 42 100 24 52 24 52 7 100 -10 26 -18 76 -19 112 -1 70 -17 88 -48 53z"/>
<path d="M5482 2773 c-28 -92 -43 -175 -37 -203 11 -50 72 -67 116 -32 l22 19
-18 64 c-9 35 -20 87 -22 114 -8 82 -42 102 -61 38z"/>
<path d="M5292 2142 c-38 -11 -26 -26 25 -34 26 -4 48 -6 50 -5 1 2 0 13 -4
25 -6 23 -25 26 -71 14z"/>
<path d="M7710 30222 c-8 -5 -38 -15 -67 -22 -54 -12 -80 -31 -68 -50 9 -15
60 -12 102 5 19 8 45 15 57 15 12 0 27 5 33 11 15 15 80 0 112 -27 30 -25 78
-45 156 -65 28 -7 73 -22 100 -35 212 -94 187 -77 228 -162 20 -43 37 -92 37
-111 0 -22 4 -31 13 -29 23 8 42 63 42 120 -1 48 -5 62 -27 85 -14 15 -31 45
-38 66 -6 20 -12 37 -13 37 -1 0 -49 21 -107 46 -108 48 -224 84 -269 84 -14
0 -38 6 -53 14 -32 17 -217 31 -238 18z"/>
<path d="M7997 28804 c-12 -13 -8 -32 11 -39 41 -17 146 -38 262 -52 69 -8
154 -18 190 -24 36 -5 101 -13 145 -19 44 -6 112 -15 150 -20 181 -26 244 -22
276 16 9 12 7 18 -12 35 -33 30 -82 49 -124 49 -19 0 -43 4 -53 9 -66 33 -215
53 -353 46 -188 -9 -431 -10 -459 -1 -14 4 -29 4 -33 0z"/>
<path d="M5660 23434 c0 -14 3 -15 18 -3 9 7 19 15 21 16 2 2 -5 3 -17 3 -14
0 -22 -6 -22 -16z"/>
<path d="M5630 23380 c0 -5 5 -10 10 -10 6 0 10 5 10 10 0 6 -4 10 -10 10 -5
0 -10 -4 -10 -10z"/>
<path d="M3695 22533 c-74 -19 -167 -137 -194 -248 -17 -66 -49 -140 -84 -193
-32 -49 -73 -135 -108 -232 -21 -58 -24 -82 -24 -215 0 -82 -4 -158 -9 -168
-4 -9 -19 -20 -32 -23 -27 -7 -115 12 -157 33 -37 19 -57 10 -57 -24 0 -16 -5
-44 -10 -63 -6 -19 -18 -96 -26 -170 -12 -117 -12 -140 0 -185 8 -27 18 -75
21 -105 12 -99 25 -133 71 -182 24 -26 44 -52 44 -58 0 -21 26 -9 47 23 56 84
77 195 67 360 -5 83 -3 131 5 160 7 23 17 60 23 82 6 22 14 51 18 65 4 14 14
45 21 70 7 25 15 50 19 55 4 6 12 30 20 55 50 168 64 214 86 285 15 44 62 154
106 245 96 198 139 291 163 347 10 23 26 50 36 59 11 10 19 21 19 26 0 8 -32
9 -65 1z"/>
<path d="M4943 21623 c-49 -73 -54 -113 -13 -113 16 0 20 6 20 33 0 23 8 41
24 56 25 23 25 51 1 51 -8 0 -22 -12 -32 -27z"/>
<path d="M7062 14738 c-90 -94 -168 -184 -195 -223 -38 -54 -64 -18 -66 90 -1
38 -7 69 -17 83 -15 22 -17 23 -36 5 -17 -15 -19 -27 -15 -83 2 -36 12 -90 22
-120 30 -94 30 -136 2 -199 -42 -94 -57 -129 -57 -136 0 -22 -46 -66 -80 -76
-35 -11 -42 -10 -60 6 -16 14 -20 31 -20 77 0 72 -12 98 -45 98 -22 0 -25 -4
-25 -39 0 -22 -4 -43 -10 -46 -6 -3 -10 -49 -10 -101 l0 -95 -82 -162 -83
-162 -7 -370 c-4 -203 -10 -397 -13 -430 -3 -33 -10 -276 -14 -540 -8 -462
-13 -549 -32 -561 -5 -3 -9 -20 -9 -38 0 -17 -5 -37 -10 -42 -7 -7 -9 -72 -7
-185 5 -175 11 -237 27 -274 5 -11 12 -42 15 -70 3 -27 8 -70 11 -95 5 -42 3
-47 -35 -85 -23 -21 -41 -44 -41 -50 0 -6 -11 -22 -25 -35 -24 -23 -25 -27
-25 -159 0 -105 5 -154 21 -216 12 -44 23 -93 26 -110 2 -16 8 -39 14 -50 5
-11 11 -121 13 -245 3 -124 8 -251 11 -283 11 -92 1 -120 -69 -201 -35 -39
-68 -81 -73 -91 -6 -11 -16 -121 -22 -245 -18 -362 -20 -393 -27 -436 -3 -23
-2 -44 4 -48 5 -3 31 15 58 41 27 25 80 70 117 100 38 30 218 202 402 381 184
180 351 342 372 360 21 18 94 82 163 142 169 147 273 258 344 365 71 106 356
411 420 449 24 14 64 31 88 37 43 12 50 19 95 94 7 11 13 44 13 73 0 29 7 75
16 102 12 38 14 60 6 107 -27 157 -77 310 -149 456 -56 112 -71 159 -93 297
-15 95 -29 164 -40 205 -16 57 -39 154 -47 194 -6 34 -183 393 -207 420 -8 9
-29 45 -47 80 -19 35 -42 78 -51 95 -16 28 -52 137 -80 241 -7 22 -15 44 -20
49 -4 6 -8 17 -8 26 0 9 -24 53 -52 97 -29 44 -73 113 -98 152 -46 73 -125
197 -165 261 -13 19 -45 68 -71 109 -27 40 -53 81 -59 90 -5 9 -22 32 -36 51
-37 49 -99 163 -99 183 0 9 11 37 25 63 14 26 25 55 25 66 0 10 11 40 24 66
13 26 26 68 30 95 4 26 11 47 16 47 12 0 40 53 40 75 0 30 80 131 169 213 50
46 91 90 91 97 0 15 -37 45 -57 45 -7 0 -48 -37 -91 -82z"/>
<path d="M4316 6293 c-15 -16 -46 -97 -38 -102 4 -3 18 -19 30 -35 20 -26 22
-40 22 -152 0 -76 -6 -150 -16 -196 -31 -141 -35 -164 -41 -237 -3 -48 -2 -71
5 -67 5 3 12 20 15 38 7 48 43 178 58 213 25 59 28 413 4 523 -5 21 -25 29
-39 15z"/>
<path d="M2701 5644 c0 -11 3 -14 6 -6 3 7 2 16 -1 19 -3 4 -6 -2 -5 -13z"/>
</g>
</svg>
