<svg width="100" height="89" viewBox="0 0 100 89" fill="none" xmlns="http://www.w3.org/2000/svg">
<g clip-path="url(#clip0_1_10)">
<path d="M25.6522 1.83626C25.3893 3.99204 25.3072 4.57548 25.1691 5.29078C23.95 11.6823 20.1807 17.0651 14.4035 20.6779C12.7308 21.7228 10.7952 22.6491 8.77086 23.371C8.45209 23.483 7.29205 23.8522 6.19117 24.1917C4.4166 24.7389 4.18985 24.818 4.19642 24.8741C4.25558 25.3553 4.7978 29.212 4.87996 29.7625C4.9424 30.1679 4.99498 30.5041 4.99498 30.5107C4.99498 30.5173 5.55035 30.5239 6.2306 30.5239C7.39064 30.5239 7.46294 30.5206 7.44651 30.4646C7.3775 30.2273 6.86156 26.5618 6.89442 26.5321C6.90756 26.5189 7.38078 26.3673 7.94601 26.1926C10.1576 25.507 11.6496 24.9169 13.3913 24.0302C16.5231 22.4348 19.1356 20.4768 21.4097 18.0112C23.9007 15.3115 25.8132 11.9658 26.8813 8.45193C27.3709 6.84663 27.6503 5.449 27.9066 3.35256L28.0117 2.47244H49.2802C63.1021 2.47244 70.7525 2.48563 71.1337 2.50541C71.8599 2.54496 72.4416 2.59441 73.02 2.65704C80.1806 3.44156 85.6588 6.4247 89.2671 11.5043C91.9388 15.2654 93.4406 19.9956 93.7561 25.6421C93.8185 26.7727 93.7889 29.657 93.7068 30.3657L93.6871 30.5239H94.903H96.1156L96.132 30.4151C96.224 29.8811 96.2405 26.2321 96.155 25.1015C96.0893 24.228 96.0203 23.4863 95.9381 22.8436C94.8438 14.1743 90.7656 7.48611 84.2523 3.67889C80.8675 1.70111 76.8648 0.51774 72.3134 0.148555C70.4896 0.000221626 70.5421 0.000221626 47.5845 0.000221626H25.879L25.6522 1.83626Z" fill="white"/>
<path d="M29.2637 3.96237C29.2538 4.0217 29.1717 4.50955 29.0862 5.04355C28.8989 6.16429 28.7149 7.0477 28.4881 7.90474C27.43 11.8735 25.5404 15.4038 22.7767 18.5749C22.3166 19.1056 20.8937 20.5296 20.3416 21.0108C17.8802 23.1699 15.1296 24.8873 12.0077 26.2157C11.1763 26.5684 10.4369 26.8486 9.31627 27.2309C8.82991 27.3957 8.42241 27.5375 8.41913 27.5408C8.39941 27.5573 8.82005 30.3327 8.85948 30.4646C8.87591 30.5206 8.94493 30.5239 9.68433 30.5239H10.4895L10.4697 30.3822C10.4566 30.3064 10.3909 29.8877 10.3186 29.4526C10.2496 29.0175 10.2036 28.6516 10.2134 28.6417C10.2266 28.6319 10.496 28.5297 10.8115 28.4143C14.1175 27.2243 17.2525 25.5201 19.8651 23.4929C25.4747 19.1352 29.129 13.2744 30.4599 6.48733C30.5322 6.11815 30.6012 5.73907 30.6143 5.64348L30.6373 5.47207L50.8345 5.48196C72.7668 5.49185 71.1664 5.47866 72.7405 5.65666C76.5821 6.08518 79.9505 7.27185 82.6419 9.14415C86.3127 11.6955 88.8168 15.5258 90.0261 20.4537C90.4073 21.9997 90.6373 23.5292 90.7721 25.4311C90.851 26.5486 90.8148 29.7328 90.7129 30.3987L90.6932 30.5239H91.5016C91.9453 30.5239 92.31 30.514 92.31 30.4976C92.31 30.4844 92.3265 30.2734 92.3429 30.0295C92.4382 28.8131 92.4382 26.3508 92.3429 25.1015C92.1556 22.5502 91.7382 20.3285 91.0547 18.2287C89.2999 12.8228 85.9446 8.79474 81.2026 6.40822C78.199 4.89522 74.8306 4.08433 70.7688 3.88985C70.3252 3.87007 62.7635 3.85689 49.681 3.85689H29.2834L29.2637 3.96237Z" fill="white"/>
<path d="M52.6553 9.39467C52.6159 9.41115 52.5633 9.454 52.5403 9.49026C52.5173 9.52652 52.1065 10.8747 51.6267 12.4833L50.7559 15.4104L47.8968 15.4269C45.7444 15.4401 45.0214 15.4533 44.9688 15.4829C44.8801 15.5357 44.8111 15.7005 44.8374 15.7994C44.8669 15.918 44.9819 16.0466 45.1134 16.1158C45.1824 16.1488 46.3523 16.5806 47.7161 17.075C49.0799 17.5695 50.2103 17.9881 50.2301 18.0046C50.2465 18.0211 50.1939 18.1002 50.0953 18.2057C50.0033 18.298 49.1817 19.2143 48.2715 20.2395C47.3579 21.2646 45.0542 23.8522 43.1482 25.9915C41.2422 28.1308 39.3888 30.2108 39.0306 30.6129L38.3766 31.348L19.4939 31.3546L0.607968 31.3645L0.460088 31.4469C0.259628 31.5623 0.11832 31.7567 0.0525951 32.0204C0.00330163 32.2215 0.00330163 32.2545 0.0525951 32.4523C0.124892 32.7456 0.325352 32.9731 0.568533 33.0456C0.680265 33.0786 1.5314 33.161 2.99049 33.2763C7.42361 33.6323 10.1775 33.8532 10.5652 33.8862C10.7821 33.9059 12.0703 34.0081 13.4243 34.1169C14.7815 34.2257 16.0664 34.3279 16.2833 34.3476C16.5002 34.3674 17.4236 34.4399 18.3372 34.5124C19.2508 34.585 20.2629 34.6674 20.5883 34.6937C21.0713 34.7333 22.9642 34.8882 26.9142 35.2047C27.141 35.2212 28.2485 35.3102 29.3789 35.4024C30.5094 35.4947 32.1722 35.6266 33.0759 35.6991C33.9796 35.7716 34.7979 35.8376 34.8932 35.8507L35.0641 35.8672L34.9918 36.0057C34.9491 36.0815 34.6007 36.6188 34.213 37.1989C33.4308 38.3757 33.2271 38.7119 32.9938 39.2031C32.6783 39.8623 32.5403 40.4227 32.583 40.8512C32.6619 41.6555 33.1647 42.2818 33.8843 42.473C34.7683 42.7103 35.8594 42.1038 37.5584 40.4293C38.5508 39.4503 39.4446 38.4383 40.9037 36.6484L41.1075 36.3979L41.3474 36.3782C41.4788 36.3683 42.1196 36.3287 42.7703 36.2924C43.421 36.2562 44.3148 36.2034 44.7585 36.1771C45.2021 36.1507 46.2669 36.0914 47.1246 36.0419C47.9823 35.9925 48.6954 35.943 48.7085 35.9332C48.725 35.9167 50.046 31.6513 50.1019 31.4238L50.1216 31.348L47.2133 31.3414L44.3083 31.3315L45.1725 30.046C46.5823 27.9462 47.8443 26.0706 48.7052 24.7884C52.2182 19.5604 53.1745 18.1463 53.214 18.1266C53.237 18.1134 54.535 17.6585 56.0993 17.1146C57.6668 16.5707 58.9911 16.1026 59.047 16.073C59.1916 15.9972 59.3165 15.8323 59.3165 15.717C59.3165 15.6543 59.2836 15.5884 59.2212 15.5225L59.1259 15.4269H56.395C53.9632 15.4269 53.6642 15.4203 53.6642 15.3774C53.6642 15.1698 53.0957 9.62211 53.0661 9.54959C53.0069 9.39796 52.8196 9.32874 52.6553 9.39467Z" fill="white"/>
<path d="M51.7316 29.3865C51.7119 29.459 51.5706 30.0161 51.4162 30.6226C51.2617 31.2291 50.3613 34.7825 49.4116 38.5172C48.4618 42.2519 47.3971 46.4481 47.0422 47.8457C46.6873 49.2401 46.3028 50.7531 46.1878 51.208C46.0727 51.6596 45.6948 53.1363 45.3531 54.4878C44.5709 57.5599 44.4461 58.0049 44.0944 58.9378C43.7592 59.8278 43.5226 60.1904 43.1184 60.4343C42.5598 60.7738 41.6331 60.9057 40.8115 60.7639C40.197 60.6584 39.9899 60.5134 39.8651 60.1113C39.7336 59.6794 39.727 59.3861 39.7369 54.5702C39.7468 50.341 39.7533 49.9389 39.8059 49.7477C39.8815 49.4741 39.9604 49.3225 40.1148 49.1742C40.3251 48.9698 40.5913 48.8841 41.1861 48.8313L41.4063 48.8116V48.0732V47.3348L38.8562 47.3414L36.3061 47.3513L34.8404 51.2146C34.0353 53.3407 33.3682 55.0811 33.3583 55.0811C33.3485 55.0811 32.6945 53.3407 31.9091 51.2146L30.4763 47.3513L27.8407 47.3414L25.2052 47.3348V48.0732V48.8149L25.3958 48.8346C26.2502 48.9236 26.6018 49.184 26.776 49.8631C26.8286 50.0707 26.8319 50.4267 26.8319 54.7185C26.8319 59.8542 26.8417 59.6201 26.6183 60.0816C26.3948 60.5398 26.0037 60.7573 25.2643 60.8332L25.0737 60.8529V61.5682V62.2835H27.5384H30.0031V61.5649C30.0031 61.1661 29.9899 60.8496 29.9735 60.8496C29.7895 60.8496 29.244 60.7672 29.1027 60.7178C28.5933 60.5431 28.3698 60.2134 28.291 59.5146C28.2482 59.1356 28.2647 51.2113 28.3074 51.3069C28.3402 51.3761 28.7182 52.332 31.035 58.2126C31.7908 60.1244 32.4185 61.7001 32.4316 61.7133C32.4447 61.7297 32.9771 60.4376 33.6179 58.8455C36.2469 52.2957 36.5098 51.6431 36.5098 51.6134C36.5098 51.6002 36.5262 51.587 36.5427 51.587C36.5854 51.587 36.5854 58.6213 36.5427 59.2509C36.4605 60.4574 36.1845 60.7442 35.0212 60.8364L34.7681 60.8562L34.7747 61.5616C34.7813 61.9506 34.7944 62.267 34.8108 62.267C34.824 62.267 37.8572 62.267 41.5542 62.267H48.2778L48.2745 61.5583C48.2712 60.9189 48.2647 60.8496 48.2154 60.8496C47.9853 60.8463 47.3445 60.7738 47.1802 60.731C46.5821 60.576 46.3061 60.2464 46.2798 59.6465C46.2568 59.2048 46.3192 58.885 46.8187 56.8842L47.2722 55.0811L50.2298 55.0877L53.1874 55.0976L53.3287 55.658C53.5029 56.3535 53.802 57.8434 53.894 58.4598C53.9926 59.1224 54.0156 59.7948 53.9498 60.0256C53.8447 60.3914 53.6081 60.6222 53.2367 60.7343C53.1381 60.7639 52.8292 60.8035 52.5565 60.8233L52.0537 60.8595V61.5715V62.2835L60.1542 62.2736L68.2548 62.267V61.5616V60.8562L68.0018 60.8332C67.4234 60.7837 67.1473 60.6881 66.891 60.4508C66.7201 60.2926 66.6183 60.0684 66.5788 59.7553C66.5197 59.307 66.523 59.3037 66.7694 59.0004C66.891 58.8488 67.3774 58.2489 67.844 57.6687C68.314 57.0886 69.3623 55.7898 70.1773 54.7844C70.989 53.7758 71.6889 52.9122 71.7251 52.8627C71.7645 52.8133 71.8072 52.7737 71.8171 52.7737C71.8302 52.7737 71.8335 54.3197 71.8302 56.2084L71.8204 59.6465L71.7448 59.9102C71.5739 60.5299 71.2288 60.7705 70.4172 60.8364L70.1608 60.8562V61.5814C70.1608 62.2308 70.1674 62.3033 70.2134 62.2868C70.243 62.2769 71.7054 62.267 73.4668 62.267H76.6676V61.5583C76.6676 60.9749 76.661 60.8496 76.6216 60.8496C76.4079 60.8496 75.869 60.7672 75.7211 60.7112C75.4845 60.6222 75.2512 60.4046 75.1559 60.1805C74.9817 59.7816 74.985 59.8179 74.9686 55.4932C74.9521 51.3992 74.9752 50.051 75.0672 49.7246C75.2315 49.128 75.5732 48.9039 76.4145 48.8346L76.6676 48.8116V48.0732V47.3348H73.4142H70.1608V48.0765C70.1608 48.4852 70.1707 48.8182 70.1871 48.8182C70.3153 48.8182 70.8016 48.8973 70.9331 48.9401C71.2979 49.0555 71.5772 49.2994 71.7251 49.6224C71.7974 49.7807 71.8171 49.8829 71.8302 50.14L71.8467 50.4597L70.7293 51.8376C70.1148 52.599 68.9351 54.056 68.1102 55.0811C67.2821 56.1063 66.592 56.9468 66.5755 56.9534C66.5361 56.9699 66.5394 51.1256 66.5788 50.4498C66.5953 50.1597 66.6314 49.8433 66.6577 49.751C66.8253 49.1313 67.1506 48.9137 68.0346 48.8346L68.2548 48.8116V48.0732V47.3348H65.0014H61.7481V48.0732V48.8116L61.9715 48.8313C62.8687 48.9104 63.1546 49.1016 63.3353 49.7345L63.4076 49.9883L63.4175 54.6526C63.4273 59.3729 63.4208 59.7025 63.309 60.0849C63.1086 60.7573 62.0373 61.0309 60.8181 60.7211C60.2726 60.5826 59.9242 60.4046 59.6482 60.1277C59.1815 59.663 58.9022 59.1125 58.5604 57.9819C58.3304 57.2303 58.2449 56.871 54.9949 43.0167C52.0208 30.3424 51.7612 29.2645 51.7316 29.3865ZM50.4763 42.1794C50.4763 42.1959 50.8969 44.2363 52.1556 50.3377C52.4973 51.9991 52.7767 53.367 52.7767 53.3802C52.7767 53.3901 51.6495 53.4 50.2758 53.4C47.9098 53.4 47.775 53.3967 47.7882 53.3407C47.798 53.311 48.3928 50.7827 49.1158 47.7238C50.2167 43.0463 50.4763 41.9948 50.4763 42.1794Z" fill="white"/>
<path d="M53.5129 31.4203C53.5227 31.4632 53.7626 32.4158 54.0453 33.5398C54.3246 34.6639 54.5612 35.5901 54.571 35.5967C54.5776 35.6033 55.0147 35.5868 55.5438 35.5539C56.0729 35.5242 57.4005 35.4484 58.4948 35.3857C59.5891 35.3198 60.8609 35.2473 61.321 35.2209C61.781 35.1946 63.4472 35.099 65.018 35.0067C67.8934 34.8419 68.9253 34.7825 70.4403 34.6935C70.8938 34.6639 72.297 34.5847 73.5622 34.5122C75.8691 34.3804 76.8977 34.321 78.4258 34.232C78.8793 34.2024 81.6956 34.0409 84.6861 33.8695C87.6765 33.698 90.368 33.5431 90.667 33.5233C90.9661 33.5069 91.7285 33.4607 92.3594 33.4245C94.3607 33.3091 97.4859 33.1311 98.3732 33.0783C98.8596 33.0487 99.2999 33.0058 99.392 32.9795C99.5924 32.9234 99.8126 32.7421 99.9079 32.5542C100.003 32.3663 100.006 32.0103 99.9112 31.8257C99.7699 31.5555 99.599 31.4368 99.2736 31.384C99.1291 31.3577 91.8336 31.3478 76.2766 31.3478H53.4932L53.5129 31.4203Z" fill="white"/>
<path d="M94.5119 34.153C93.996 34.186 93.5096 34.2124 93.4274 34.2124L93.2763 34.2157L93.2007 34.6837C92.9378 36.3418 92.3561 38.8832 91.7843 40.9071C89.0272 50.6477 84.1471 59.4554 77.2132 67.2116C75.4912 69.1399 73.1251 71.4803 71.1304 73.2273C65.2513 78.386 58.5934 82.6284 51.1468 85.9642L50.322 86.3334L49.6187 86.0236C35.0771 79.5694 23.8152 69.5058 16.3555 56.314C12.7899 50.0016 10.1544 43.086 8.42908 35.488C8.31406 34.9837 8.21219 34.5651 8.20562 34.5585C8.19904 34.5486 5.81324 34.3475 5.71465 34.3475C5.70151 34.3475 5.7048 34.4035 5.72123 34.4695C5.73766 34.5387 5.83296 34.9738 5.93483 35.4353C6.64137 38.6788 7.54837 41.9191 8.60982 44.9748C11.6102 53.6275 15.9315 61.3508 21.5346 68.0851C22.0801 68.7411 22.1951 68.8696 22.9575 69.7333C23.8119 70.6991 25.833 72.8384 26.1616 73.1251C26.224 73.1779 26.4968 73.4383 26.7662 73.702C28.6591 75.5446 31.0186 77.5587 33.3716 79.3321C37.4564 82.4108 42.1294 85.216 46.9273 87.4673C47.7817 87.8695 50.2562 88.9704 50.3121 88.977C50.3614 88.9803 51.344 88.5485 52.7768 87.8958C64.5086 82.5493 74.5809 74.7469 82.0439 65.2338C86.9864 58.928 90.7064 52.0387 93.1974 44.566C94.2786 41.3192 95.202 37.6141 95.6456 34.7431C95.6917 34.4431 95.7344 34.1728 95.7409 34.1398C95.7574 34.0706 95.7837 34.0706 94.5119 34.153Z" fill="white"/>
<path d="M90.9134 34.3541C90.2003 34.397 90.2134 34.3937 90.1871 34.5387C90.1017 35.053 89.773 36.6319 89.5956 37.3768C87.1802 47.6679 82.241 57.0854 75.0409 65.135C73.3715 67.0007 71.3011 69.0608 69.3721 70.7749C63.9794 75.5611 57.545 79.7277 50.7031 82.8657L50.3186 83.0437L49.8322 82.8196C46.3291 81.2143 42.9048 79.3024 39.7139 77.1664C26.4145 68.2697 17.0915 55.2988 12.5039 39.3085C12.103 37.9174 11.4786 35.4914 11.3833 34.964C11.3702 34.8782 11.3406 34.8288 11.2913 34.809C11.2321 34.786 9.93407 34.6739 9.74018 34.6772C9.67117 34.6772 9.67117 34.6871 9.81577 35.3101C11.7481 43.8178 14.9456 51.6366 19.3163 58.5588C22.7208 63.945 26.9075 68.84 31.7546 73.0922C36.914 77.6213 42.7964 81.3824 49.5332 84.4545L50.3153 84.8105L50.8148 84.5864C62.6978 79.2332 72.7635 71.3089 80.0162 61.5947C85.4615 54.3033 89.2177 46.2076 91.2387 37.4131C91.4523 36.4737 91.8499 34.4827 91.8499 34.3344C91.8499 34.3113 91.5608 34.3146 90.9134 34.3541Z" fill="white"/>
</g>
<defs>
<clipPath id="clip0_1_10">
<rect width="100" height="89" fill="white"/>
</clipPath>
</defs>
</svg>
